<svg width="159" height="74" viewBox="0 0 159 74" fill="none" xmlns="http://www.w3.org/2000/svg">
<circle cx="78.9186" cy="36.594" r="31.2643" transform="rotate(-169.142 78.9186 36.594)" fill="url(#paint0_linear_6_72)"/>
<path d="M8.15876 31.3606L3.68387 45H0.0791016L6.19252 28.5469H8.48647L8.15876 31.3606ZM11.8765 45L7.39035 31.3606L7.02874 28.5469H9.34528L15.4926 45H11.8765ZM11.6731 38.8753V41.5308H2.98326V38.8753H11.6731ZM29.7078 37.7792H25.4816L25.459 35.4513H29.0072C29.6325 35.4513 30.1448 35.3722 30.5441 35.214C30.9433 35.0483 31.2409 34.811 31.4368 34.5021C31.6402 34.1857 31.7419 33.8015 31.7419 33.3495C31.7419 32.8372 31.6439 32.4229 31.4481 32.1064C31.2597 31.79 30.9622 31.5603 30.5554 31.4171C30.1561 31.274 29.64 31.2024 29.0072 31.2024H26.6568V45H23.2667V28.5469H29.0072C29.964 28.5469 30.819 28.6373 31.5724 28.8181C32.3333 28.9989 32.9774 29.2739 33.5047 29.643C34.0321 30.0121 34.4351 30.4792 34.7138 31.0442C34.9926 31.6017 35.1319 32.2646 35.1319 33.0331C35.1319 33.7111 34.9775 34.3364 34.6686 34.9089C34.3673 35.4814 33.8889 35.9485 33.2335 36.3101C32.5856 36.6717 31.7381 36.8714 30.691 36.909L29.7078 37.7792ZM29.5609 45H24.5549L25.8771 42.3557H29.5609C30.1561 42.3557 30.642 42.2616 31.0187 42.0732C31.3953 41.8774 31.6741 41.6137 31.8549 41.2822C32.0357 40.9508 32.1261 40.5703 32.1261 40.1409C32.1261 39.6588 32.0432 39.2407 31.8775 38.8866C31.7193 38.5325 31.4631 38.2613 31.1091 38.073C30.755 37.8771 30.2879 37.7792 29.7078 37.7792H26.4421L26.4647 35.4513H30.5328L31.3125 36.3666C32.3144 36.3516 33.1205 36.5286 33.7307 36.8977C34.3485 37.2593 34.7967 37.7302 35.0754 38.3103C35.3617 38.8903 35.5048 39.5119 35.5048 40.1748C35.5048 41.2295 35.2751 42.1184 34.8155 42.8417C34.356 43.5573 33.6817 44.096 32.7928 44.4576C31.9114 44.8192 30.8341 45 29.5609 45ZM57.811 36.3892V37.1689C57.811 38.4195 57.6415 39.542 57.3025 40.5364C56.9635 41.5308 56.4851 42.3783 55.8674 43.079C55.2497 43.772 54.5114 44.3032 53.6526 44.6723C52.8013 45.0414 51.8558 45.226 50.8162 45.226C49.7841 45.226 48.8387 45.0414 47.9798 44.6723C47.1286 44.3032 46.3903 43.772 45.765 43.079C45.1397 42.3783 44.6538 41.5308 44.3073 40.5364C43.9683 39.542 43.7988 38.4195 43.7988 37.1689V36.3892C43.7988 35.1311 43.9683 34.0086 44.3073 33.0218C44.6463 32.0273 45.1247 31.1798 45.7424 30.4792C46.3677 29.7786 47.106 29.2437 47.9572 28.8746C48.8161 28.5054 49.7615 28.3209 50.7936 28.3209C51.8332 28.3209 52.7787 28.5054 53.63 28.8746C54.4888 29.2437 55.2271 29.7786 55.8448 30.4792C56.4701 31.1798 56.9522 32.0273 57.2912 33.0218C57.6378 34.0086 57.811 35.1311 57.811 36.3892ZM54.3871 37.1689V36.3666C54.3871 35.4927 54.308 34.7243 54.1498 34.0614C53.9916 33.3984 53.758 32.841 53.4492 32.389C53.1403 31.9369 52.7636 31.5979 52.3191 31.3719C51.8747 31.1384 51.3661 31.0216 50.7936 31.0216C50.2211 31.0216 49.7125 31.1384 49.2681 31.3719C48.8311 31.5979 48.4582 31.9369 48.1493 32.389C47.848 32.841 47.6182 33.3984 47.46 34.0614C47.3018 34.7243 47.2227 35.4927 47.2227 36.3666V37.1689C47.2227 38.0353 47.3018 38.8037 47.46 39.4742C47.6182 40.1371 47.8518 40.6984 48.1606 41.1579C48.4695 41.6099 48.8462 41.9527 49.2907 42.1862C49.7351 42.4198 50.2437 42.5366 50.8162 42.5366C51.3887 42.5366 51.8973 42.4198 52.3417 42.1862C52.7862 41.9527 53.1591 41.6099 53.4605 41.1579C53.7618 40.6984 53.9916 40.1371 54.1498 39.4742C54.308 38.8037 54.3871 38.0353 54.3871 37.1689ZM75.5858 28.5469H78.9646V39.4177C78.9646 40.6833 78.6934 41.7493 78.151 42.6157C77.6161 43.482 76.8741 44.1336 75.9248 44.5706C74.9832 45.0075 73.8983 45.226 72.6704 45.226C71.4424 45.226 70.3501 45.0075 69.3933 44.5706C68.4441 44.1336 67.6983 43.482 67.1559 42.6157C66.621 41.7493 66.3536 40.6833 66.3536 39.4177V28.5469H69.7436V39.4177C69.7436 40.156 69.8604 40.7586 70.0939 41.2257C70.3275 41.6928 70.6627 42.0356 71.0996 42.254C71.5441 42.4725 72.0677 42.5818 72.6704 42.5818C73.2881 42.5818 73.8117 42.4725 74.2411 42.254C74.678 42.0356 75.0095 41.6928 75.2355 41.2257C75.4691 40.7586 75.5858 40.156 75.5858 39.4177V28.5469ZM95.3608 28.5469V45H91.982V28.5469H95.3608ZM100.423 28.5469V31.2024H86.9986V28.5469H100.423ZM121.554 28.5469H124.424L128.65 40.6268L132.877 28.5469H135.747L129.803 45H127.498L121.554 28.5469ZM120.006 28.5469H122.865L123.384 40.3217V45H120.006V28.5469ZM134.436 28.5469H137.306V45H133.916V40.3217L134.436 28.5469ZM157.567 42.3557V45H148.809V42.3557H157.567ZM149.917 28.5469V45H146.527V28.5469H149.917ZM156.426 35.2479V37.8244H148.809V35.2479H156.426ZM157.556 28.5469V31.2024H148.809V28.5469H157.556Z" fill="url(#paint1_linear_6_72)"/>
<defs>
<linearGradient id="paint0_linear_6_72" x1="78.9186" y1="5.32965" x2="78.9186" y2="67.8583" gradientUnits="userSpaceOnUse">
<stop stop-color="#FF5B8D"/>
<stop offset="1" stop-color="#FEE140"/>
</linearGradient>
<linearGradient id="paint1_linear_6_72" x1="79.5" y1="24" x2="79.5" y2="51" gradientUnits="userSpaceOnUse">
<stop stop-color="#FF5B8D"/>
<stop offset="1" stop-color="#FEE140"/>
</linearGradient>
</defs>
</svg>
