<svg width="389" height="162" viewBox="0 0 389 162" fill="none" xmlns="http://www.w3.org/2000/svg">
<path d="M78.8103 48.5036C78.8103 46.1974 75.9225 44.0117 71.4943 42.657C72.5169 38.1447 72.0629 34.5534 70.0613 33.4032C69.5763 33.1316 69.0274 32.9949 68.4716 33.0073V34.5882C68.798 34.5882 69.0605 34.6535 69.281 34.7739C70.2455 35.3279 70.6647 37.434 70.3383 40.1448C70.26 40.812 70.1324 41.514 69.9757 42.2305C68.4929 41.8732 66.9878 41.6149 65.4707 41.4574C64.5669 40.2105 63.5808 39.0253 62.5191 37.9097C64.8325 35.7602 67.0038 34.5824 68.4803 34.5824V33C66.5281 33 63.9738 34.391 61.3906 36.803C58.8089 34.4069 56.2532 33.029 54.3024 33.029V34.61C55.7717 34.61 57.9502 35.7819 60.2637 37.917C59.2701 38.9613 58.2766 40.1448 57.3323 41.4574C55.812 41.6132 54.3044 41.8739 52.8201 42.2378C52.6632 41.5587 52.5398 40.8723 52.4502 40.1811C52.1166 37.4688 52.5285 35.3627 53.4873 34.8029C53.699 34.6752 53.976 34.6172 54.3024 34.6172V33.0363C53.7077 33.0363 53.1667 33.1639 52.6997 33.4322C50.7053 34.5824 50.2586 38.165 51.287 42.6642C46.8733 44.0276 44 46.2047 44 48.5036C44 50.8098 46.8878 52.9956 51.316 54.3489C50.2934 58.8626 50.7474 62.4538 52.749 63.6026C53.2102 63.8724 53.7498 64 54.3445 64C56.2967 64 58.8509 62.609 61.4341 60.197C64.0159 62.5945 66.5701 63.971 68.5224 63.971C69.0824 63.9828 69.6355 63.8457 70.1251 63.5736C72.1194 62.4248 72.5662 58.8423 71.5378 54.3431C75.937 52.9884 78.8103 50.8026 78.8103 48.5036ZM69.571 43.7709C69.2954 44.7193 68.976 45.6543 68.6138 46.5731C68.0208 45.4197 67.3697 44.297 66.6629 43.2096C67.671 43.359 68.6428 43.5432 69.5725 43.7709H69.571ZM66.3221 51.3276C65.7908 52.2551 65.2203 53.1595 64.612 54.0385C62.4832 54.2261 60.342 54.2285 58.2127 54.0457C56.9914 52.3011 55.9233 50.4541 55.0204 48.5254C55.9219 46.5921 56.9855 44.7386 58.1997 42.9847C60.328 42.7967 62.4687 42.7938 64.5975 42.976C65.1864 43.8202 65.7622 44.7224 66.3148 45.6738C66.8544 46.6021 67.3446 47.5449 67.7914 48.4964C67.3397 49.4594 66.8495 50.4039 66.3221 51.3276V51.3276ZM68.6138 50.4051C68.9967 51.3552 69.3245 52.3066 69.5928 53.2291C68.6645 53.4568 67.684 53.6483 66.6702 53.7962C67.374 52.6989 68.0227 51.5671 68.6138 50.4051V50.4051ZM61.4196 57.9764C60.7597 57.2947 60.0998 56.5361 59.4471 55.705C60.0852 55.734 60.7379 55.7558 61.3979 55.7558C62.0651 55.7558 62.725 55.7413 63.3705 55.705C62.7323 56.5361 62.0723 57.2947 61.4196 57.9764ZM56.1401 53.7962C55.1621 53.6545 54.1912 53.4677 53.2305 53.2364C53.4931 52.3212 53.8194 51.3769 54.1878 50.4341C54.4793 50.9998 54.7854 51.5684 55.119 52.1369C55.4526 52.7041 55.792 53.2581 56.1401 53.7962ZM61.3834 39.0309C62.0433 39.7126 62.7033 40.4712 63.356 41.3023C62.7178 41.2732 62.0651 41.2515 61.4051 41.2515C60.7379 41.2515 60.078 41.266 59.4326 41.3023C60.0707 40.4712 60.7307 39.7126 61.3834 39.0309ZM56.1328 43.211C55.4292 44.306 54.7805 45.4353 54.1893 46.5949C53.8168 45.6702 53.4901 44.7277 53.2102 43.7709C54.1385 43.5504 55.119 43.359 56.1328 43.211ZM49.7118 52.0934C47.1996 51.023 45.5752 49.6176 45.5752 48.5036C45.5752 47.3897 47.1996 45.977 49.7118 44.9138C50.321 44.6513 50.9882 44.4163 51.6771 44.1973C52.0818 45.5868 52.6141 47.0343 53.2726 48.5181C52.6509 49.9137 52.1251 51.3501 51.6989 52.8172C51.0251 52.6086 50.3619 52.367 49.7118 52.0934V52.0934ZM53.5293 62.2319C52.5648 61.6808 52.1456 59.5718 52.472 56.8624C52.5503 56.1952 52.6779 55.4918 52.8346 54.7753C54.2241 55.1161 55.7427 55.3787 57.3396 55.5498C58.2435 56.7967 59.2295 57.9819 60.2912 59.0976C57.9778 61.2471 55.8065 62.4248 54.3299 62.4248C54.0514 62.4279 53.7764 62.3621 53.5293 62.2334V62.2319ZM70.3601 56.8262C70.6937 59.537 70.2818 61.6445 69.323 62.2044C69.1113 62.332 68.8342 62.3886 68.5079 62.3886C67.0386 62.3886 64.8601 61.2181 62.5466 59.0816C63.6039 57.9707 64.5833 56.7882 65.4779 55.5426C66.9982 55.3868 68.5059 55.1261 69.9902 54.7622C70.1541 55.4787 70.2803 56.1662 70.3601 56.8262V56.8262ZM73.0912 52.0934C72.4821 52.356 71.8149 52.5909 71.1259 52.8099C70.6922 51.3353 70.1591 49.8917 69.5304 48.4891C70.1831 47.014 70.7067 45.5738 71.1042 44.1901C71.7801 44.3994 72.4456 44.6409 73.0985 44.9138C75.6106 45.9842 77.2351 47.3897 77.2351 48.5036C77.2279 49.6176 75.6034 51.0303 73.0912 52.0934V52.0934Z" fill="url(#paint0_linear_3_29)"/>
<path d="M61.3979 51.7468C62.258 51.7468 63.0829 51.4051 63.6912 50.7969C64.2994 50.1887 64.6411 49.3638 64.6411 48.5036C64.6411 47.6435 64.2994 46.8186 63.6912 46.2104C63.0829 45.6022 62.258 45.2605 61.3979 45.2605C60.5378 45.2605 59.7128 45.6022 59.1046 46.2104C58.4964 46.8186 58.1547 47.6435 58.1547 48.5036C58.1547 49.3638 58.4964 50.1887 59.1046 50.7969C59.7128 51.4051 60.5378 51.7468 61.3979 51.7468V51.7468Z" fill="url(#paint1_linear_3_29)"/>
<rect x="0.25" y="0.25" width="122.5" height="161.5" rx="13.75" stroke="url(#paint2_linear_3_29)" stroke-width="0.5"/>
<path d="M42.7617 72.4688H45.9434C46.5957 72.4688 47.1562 72.5664 47.625 72.7617C48.0977 72.957 48.4609 73.2461 48.7148 73.6289C48.9688 74.0117 49.0957 74.4824 49.0957 75.041C49.0957 75.498 49.0176 75.8906 48.8613 76.2188C48.709 76.543 48.4922 76.8145 48.2109 77.0332C47.9336 77.248 47.6074 77.4199 47.2324 77.5488L46.6758 77.8418H43.9102L43.8984 76.4707H45.9551C46.2637 76.4707 46.5195 76.416 46.7227 76.3066C46.9258 76.1973 47.0781 76.0449 47.1797 75.8496C47.2852 75.6543 47.3379 75.4277 47.3379 75.1699C47.3379 74.8965 47.2871 74.6602 47.1855 74.4609C47.084 74.2617 46.9297 74.1094 46.7227 74.0039C46.5156 73.8984 46.2559 73.8457 45.9434 73.8457H44.5195V81H42.7617V72.4688ZM47.5312 81L45.5859 77.1973L47.4434 77.1855L49.4121 80.918V81H47.5312ZM56.1738 79.6289V81H51.6328V79.6289H56.1738ZM52.207 72.4688V81H50.4492V72.4688H52.207ZM55.582 75.9434V77.2793H51.6328V75.9434H55.582ZM56.168 72.4688V73.8457H51.6328V72.4688H56.168ZM60.668 73.9277L58.3477 81H56.4785L59.6484 72.4688H60.8379L60.668 73.9277ZM62.5957 81L60.2695 73.9277L60.082 72.4688H61.2832L64.4707 81H62.5957ZM62.4902 77.8242V79.2012H57.9844V77.8242H62.4902ZM70.1016 78.1699H71.8535C71.8184 78.7441 71.6602 79.2539 71.3789 79.6992C71.1016 80.1445 70.7129 80.4922 70.2129 80.7422C69.7168 80.9922 69.1191 81.1172 68.4199 81.1172C67.873 81.1172 67.3828 81.0234 66.9492 80.8359C66.5156 80.6445 66.1445 80.3711 65.8359 80.0156C65.5312 79.6602 65.2988 79.2305 65.1387 78.7266C64.9785 78.2227 64.8984 77.6582 64.8984 77.0332V76.4414C64.8984 75.8164 64.9805 75.252 65.1445 74.748C65.3125 74.2402 65.5508 73.8086 65.8594 73.4531C66.1719 73.0977 66.5449 72.8242 66.9785 72.6328C67.4121 72.4414 67.8965 72.3457 68.4316 72.3457C69.1426 72.3457 69.7422 72.4746 70.2305 72.7324C70.7227 72.9902 71.1035 73.3457 71.373 73.7988C71.6465 74.252 71.8105 74.7676 71.8652 75.3457H70.1074C70.0879 75.002 70.0195 74.7109 69.9023 74.4727C69.7852 74.2305 69.6074 74.0488 69.3691 73.9277C69.1348 73.8027 68.8223 73.7402 68.4316 73.7402C68.1387 73.7402 67.8828 73.7949 67.6641 73.9043C67.4453 74.0137 67.2617 74.1797 67.1133 74.4023C66.9648 74.625 66.8535 74.9062 66.7793 75.2461C66.709 75.582 66.6738 75.9766 66.6738 76.4297V77.0332C66.6738 77.4746 66.707 77.8633 66.7734 78.1992C66.8398 78.5312 66.9414 78.8125 67.0781 79.043C67.2188 79.2695 67.3984 79.4414 67.6172 79.5586C67.8398 79.6719 68.1074 79.7285 68.4199 79.7285C68.7871 79.7285 69.0898 79.6699 69.3281 79.5527C69.5664 79.4355 69.748 79.2617 69.873 79.0312C70.002 78.8008 70.0781 78.5137 70.1016 78.1699ZM76.6465 72.4688V81H74.8945V72.4688H76.6465ZM79.2715 72.4688V73.8457H72.3105V72.4688H79.2715Z" fill="white"/>
<rect x="133.25" y="0.25" width="122.5" height="161.5" rx="13.75" stroke="url(#paint3_linear_3_29)" stroke-width="0.5"/>
<path d="M193.864 56.4364C193.826 56.5061 193.845 56.4751 193.864 56.4364ZM209.432 50.8181C208.175 50.8181 206.935 51.1152 205.807 51.6899C205.439 50.9214 205.057 50.2498 204.995 49.7461C204.92 49.1585 204.839 48.8097 204.926 48.1123C205.014 47.4148 205.407 46.4268 205.401 46.3558C205.395 46.2847 205.314 45.9295 204.508 45.9231C203.701 45.9166 203.008 46.0845 202.926 46.3041C202.784 46.7053 202.673 47.1178 202.595 47.5375C202.451 48.2931 200.984 50.9925 200.153 52.4003C199.878 51.8514 199.647 51.367 199.597 50.9796C199.522 50.3919 199.441 50.0432 199.528 49.3457C199.616 48.6483 200.009 47.6602 200.003 47.5892C199.997 47.5182 199.915 47.163 199.111 47.1565C198.306 47.1501 197.611 47.318 197.529 47.5375C197.448 47.7571 197.361 48.2737 197.198 48.771C197.036 49.2682 195.08 53.7629 194.569 54.9317C194.306 55.5259 194.081 56.0037 193.919 56.3266C193.894 56.3783 193.875 56.4106 193.862 56.4364C193.881 56.4041 193.894 56.3718 193.894 56.3847C193.756 56.6624 193.675 56.8174 193.675 56.8174V56.8239C193.569 57.0305 193.45 57.2178 193.394 57.2178C193.356 57.2178 193.275 56.6753 193.412 55.9327C193.706 54.3699 194.4 51.9418 194.394 51.8578C194.387 51.8126 194.525 51.3929 193.937 51.1668C193.369 50.9537 193.162 51.3089 193.112 51.3089C193.062 51.3089 193.025 51.4381 193.025 51.4381C193.025 51.4381 193.656 48.6999 191.813 48.6999C190.663 48.6999 189.063 50.0044 188.277 51.1862C187.783 51.4639 186.714 52.0645 185.589 52.7038L184.296 53.44C184.265 53.4077 184.24 53.3754 184.208 53.3431C181.971 50.8762 177.841 49.1326 178.016 45.8198C178.079 44.6122 178.485 41.4414 185.958 37.5925C192.082 34.4411 196.978 35.3065 197.822 37.2309C199.034 39.9754 195.203 45.0836 188.844 45.8198C186.419 46.0974 185.146 45.1288 184.827 44.7671C184.496 44.3861 184.446 44.3668 184.321 44.4378C184.115 44.554 184.246 44.8898 184.321 45.09C184.508 45.6002 185.289 46.5043 186.621 46.9563C187.789 47.3503 190.631 47.5698 194.067 46.1943C197.928 44.6574 200.934 40.3758 200.052 36.7918C199.154 33.1495 193.31 31.9549 187.784 33.9826C184.491 35.1902 180.93 37.0888 178.369 39.5622C175.325 42.5069 174.839 45.0707 175.039 46.1427C175.752 49.9463 180.825 52.4261 182.855 54.2601L182.573 54.4216C181.555 54.9446 177.688 57.037 176.719 59.2455C175.625 61.7512 176.9 63.5464 177.736 63.7918C180.349 64.5409 183.022 63.1913 184.459 60.9762C185.897 58.7612 185.722 55.8681 185.059 54.5507C185.053 54.5313 185.041 54.5184 185.034 54.4991C185.784 54.0401 186.541 53.5923 187.303 53.1558C187.053 53.8533 186.872 54.6928 186.778 55.9069C186.666 57.3276 187.234 59.1681 187.972 59.8913C188.297 60.2078 188.689 60.2142 188.934 60.2142C189.796 60.2142 190.184 59.478 190.615 58.5998C191.146 57.5278 191.615 56.2814 191.615 56.2814C191.615 56.2814 191.028 59.6524 192.634 59.6524C193.221 59.6524 193.809 58.871 194.071 58.4706V58.4771C194.071 58.4771 194.084 58.4512 194.115 58.3996C194.177 58.3027 194.209 58.2446 194.209 58.2446V58.2252C194.446 57.8055 194.965 56.8432 195.746 55.2546C196.758 53.201 197.726 50.6373 197.726 50.6373C197.819 51.2004 197.949 51.7571 198.113 52.3034C198.288 52.9169 198.657 53.5885 198.951 54.2407C198.713 54.5766 198.569 54.7703 198.569 54.7703C198.569 54.7755 198.572 54.7793 198.576 54.7832C198.388 55.0415 198.176 55.3192 197.957 55.5904C197.158 56.572 196.207 57.6957 196.082 58.0186C195.932 58.3996 195.97 58.6837 196.257 58.9033C196.47 59.0712 196.845 59.097 197.238 59.0647C197.957 59.0131 198.463 58.8322 198.707 58.716C199.156 58.5496 199.581 58.3192 199.969 58.0315C200.75 57.4374 201.225 56.5849 201.182 55.4613C201.157 54.8413 200.963 54.2214 200.725 53.6402C200.794 53.5368 200.869 53.4271 200.938 53.3173C201.751 52.0634 202.484 50.7556 203.131 49.4026C203.225 49.9657 203.354 50.5223 203.519 51.0687C203.669 51.5918 203.963 52.1665 204.231 52.7283C203.069 53.7035 202.35 54.8336 202.102 55.5762C201.639 56.9517 202.002 57.5717 202.683 57.7138C202.989 57.7783 203.426 57.6298 203.751 57.4877C204.234 57.3211 204.689 57.0796 205.1 56.7709C205.881 56.1768 206.637 55.3437 206.586 54.2136C206.567 53.7035 206.43 53.1933 206.249 52.7025C207.23 52.2763 208.505 52.0438 210.129 52.2375C213.609 52.6573 214.29 54.9046 214.159 55.841C214.028 56.7774 213.297 57.3005 213.053 57.4554C212.809 57.6104 212.734 57.6686 212.753 57.7848C212.784 57.9527 212.897 57.9462 213.103 57.9075C213.39 57.8558 214.928 57.1455 214.996 55.4083C215.096 53.2127 213.053 50.7974 209.435 50.8168L209.432 50.8181ZM182.611 60.1626C181.461 61.4606 179.85 61.9514 179.156 61.5381C178.413 61.0912 178.706 59.181 180.124 57.7977C180.986 56.9582 182.098 56.1833 182.836 55.7054C183.005 55.6021 183.248 55.4471 183.548 55.2598C183.573 55.2436 183.598 55.2286 183.623 55.2146C183.68 55.1758 183.742 55.1435 183.805 55.1048C184.322 57.068 183.823 58.7987 182.611 60.1613V60.1626ZM191.008 54.2601C190.608 55.274 189.765 57.8571 189.252 57.7215C188.814 57.6053 188.545 55.6356 189.164 53.6983C189.477 52.7232 190.139 51.5608 190.533 51.1087C191.164 50.379 191.858 50.1465 192.02 50.4371C192.239 50.8181 191.258 53.6273 191.008 54.2601ZM197.944 57.6828C197.776 57.7732 197.619 57.8313 197.544 57.7861C197.488 57.7538 197.613 57.6311 197.613 57.6311C197.613 57.6311 198.482 56.6689 198.826 56.2298C199.026 55.9714 199.257 55.6679 199.507 55.3321C199.507 55.3644 199.513 55.3967 199.513 55.4354C199.506 56.5914 198.431 57.3728 197.943 57.6828H197.944ZM203.294 56.4235C203.169 56.3331 203.188 56.0296 203.606 55.0867C203.769 54.7186 204.144 54.0987 204.794 53.5046C204.867 53.7293 204.907 53.9644 204.912 54.202C204.906 55.655 203.9 56.1975 203.294 56.4235Z" fill="url(#paint4_linear_3_29)"/>
<path d="M184.203 78.7676C184.203 78.6152 184.18 78.4785 184.133 78.3574C184.09 78.2324 184.008 78.1191 183.887 78.0176C183.766 77.9121 183.596 77.8086 183.377 77.707C183.158 77.6055 182.875 77.5 182.527 77.3906C182.141 77.2656 181.773 77.125 181.426 76.9688C181.082 76.8125 180.777 76.6309 180.512 76.4238C180.25 76.2129 180.043 75.9688 179.891 75.6914C179.742 75.4141 179.668 75.0918 179.668 74.7246C179.668 74.3691 179.746 74.0469 179.902 73.7578C180.059 73.4648 180.277 73.2148 180.559 73.0078C180.84 72.7969 181.172 72.6348 181.555 72.5215C181.941 72.4082 182.365 72.3516 182.826 72.3516C183.455 72.3516 184.004 72.4648 184.473 72.6914C184.941 72.918 185.305 73.2285 185.562 73.623C185.824 74.0176 185.955 74.4688 185.955 74.9766H184.209C184.209 74.7266 184.156 74.5078 184.051 74.3203C183.949 74.1289 183.793 73.9785 183.582 73.8691C183.375 73.7598 183.113 73.7051 182.797 73.7051C182.492 73.7051 182.238 73.752 182.035 73.8457C181.832 73.9355 181.68 74.0586 181.578 74.2148C181.477 74.3672 181.426 74.5391 181.426 74.7305C181.426 74.875 181.461 75.0059 181.531 75.123C181.605 75.2402 181.715 75.3496 181.859 75.4512C182.004 75.5527 182.182 75.6484 182.393 75.7383C182.604 75.8281 182.848 75.916 183.125 76.002C183.59 76.1426 183.998 76.3008 184.35 76.4766C184.705 76.6523 185.002 76.8496 185.24 77.0684C185.479 77.2871 185.658 77.5352 185.779 77.8125C185.9 78.0898 185.961 78.4043 185.961 78.7559C185.961 79.127 185.889 79.459 185.744 79.752C185.6 80.0449 185.391 80.293 185.117 80.4961C184.844 80.6992 184.518 80.8535 184.139 80.959C183.76 81.0645 183.336 81.1172 182.867 81.1172C182.445 81.1172 182.029 81.0625 181.619 80.9531C181.209 80.8398 180.836 80.6699 180.5 80.4434C180.168 80.2168 179.902 79.9277 179.703 79.5762C179.504 79.2246 179.404 78.8086 179.404 78.3281H181.168C181.168 78.5938 181.209 78.8184 181.291 79.002C181.373 79.1855 181.488 79.334 181.637 79.4473C181.789 79.5605 181.969 79.6426 182.176 79.6934C182.387 79.7441 182.617 79.7695 182.867 79.7695C183.172 79.7695 183.422 79.7266 183.617 79.6406C183.816 79.5547 183.963 79.4355 184.057 79.2832C184.154 79.1309 184.203 78.959 184.203 78.7676ZM190.625 73.9277L188.305 81H186.436L189.605 72.4688H190.795L190.625 73.9277ZM192.553 81L190.227 73.9277L190.039 72.4688H191.24L194.428 81H192.553ZM192.447 77.8242V79.2012H187.941V77.8242H192.447ZM199.66 78.7676C199.66 78.6152 199.637 78.4785 199.59 78.3574C199.547 78.2324 199.465 78.1191 199.344 78.0176C199.223 77.9121 199.053 77.8086 198.834 77.707C198.615 77.6055 198.332 77.5 197.984 77.3906C197.598 77.2656 197.23 77.125 196.883 76.9688C196.539 76.8125 196.234 76.6309 195.969 76.4238C195.707 76.2129 195.5 75.9688 195.348 75.6914C195.199 75.4141 195.125 75.0918 195.125 74.7246C195.125 74.3691 195.203 74.0469 195.359 73.7578C195.516 73.4648 195.734 73.2148 196.016 73.0078C196.297 72.7969 196.629 72.6348 197.012 72.5215C197.398 72.4082 197.822 72.3516 198.283 72.3516C198.912 72.3516 199.461 72.4648 199.93 72.6914C200.398 72.918 200.762 73.2285 201.02 73.623C201.281 74.0176 201.412 74.4688 201.412 74.9766H199.666C199.666 74.7266 199.613 74.5078 199.508 74.3203C199.406 74.1289 199.25 73.9785 199.039 73.8691C198.832 73.7598 198.57 73.7051 198.254 73.7051C197.949 73.7051 197.695 73.752 197.492 73.8457C197.289 73.9355 197.137 74.0586 197.035 74.2148C196.934 74.3672 196.883 74.5391 196.883 74.7305C196.883 74.875 196.918 75.0059 196.988 75.123C197.062 75.2402 197.172 75.3496 197.316 75.4512C197.461 75.5527 197.639 75.6484 197.85 75.7383C198.061 75.8281 198.305 75.916 198.582 76.002C199.047 76.1426 199.455 76.3008 199.807 76.4766C200.162 76.6523 200.459 76.8496 200.697 77.0684C200.936 77.2871 201.115 77.5352 201.236 77.8125C201.357 78.0898 201.418 78.4043 201.418 78.7559C201.418 79.127 201.346 79.459 201.201 79.752C201.057 80.0449 200.848 80.293 200.574 80.4961C200.301 80.6992 199.975 80.8535 199.596 80.959C199.217 81.0645 198.793 81.1172 198.324 81.1172C197.902 81.1172 197.486 81.0625 197.076 80.9531C196.666 80.8398 196.293 80.6699 195.957 80.4434C195.625 80.2168 195.359 79.9277 195.16 79.5762C194.961 79.2246 194.861 78.8086 194.861 78.3281H196.625C196.625 78.5938 196.666 78.8184 196.748 79.002C196.83 79.1855 196.945 79.334 197.094 79.4473C197.246 79.5605 197.426 79.6426 197.633 79.6934C197.844 79.7441 198.074 79.7695 198.324 79.7695C198.629 79.7695 198.879 79.7266 199.074 79.6406C199.273 79.5547 199.42 79.4355 199.514 79.2832C199.611 79.1309 199.66 78.959 199.66 78.7676ZM207.055 78.7676C207.055 78.6152 207.031 78.4785 206.984 78.3574C206.941 78.2324 206.859 78.1191 206.738 78.0176C206.617 77.9121 206.447 77.8086 206.229 77.707C206.01 77.6055 205.727 77.5 205.379 77.3906C204.992 77.2656 204.625 77.125 204.277 76.9688C203.934 76.8125 203.629 76.6309 203.363 76.4238C203.102 76.2129 202.895 75.9688 202.742 75.6914C202.594 75.4141 202.52 75.0918 202.52 74.7246C202.52 74.3691 202.598 74.0469 202.754 73.7578C202.91 73.4648 203.129 73.2148 203.41 73.0078C203.691 72.7969 204.023 72.6348 204.406 72.5215C204.793 72.4082 205.217 72.3516 205.678 72.3516C206.307 72.3516 206.855 72.4648 207.324 72.6914C207.793 72.918 208.156 73.2285 208.414 73.623C208.676 74.0176 208.807 74.4688 208.807 74.9766H207.061C207.061 74.7266 207.008 74.5078 206.902 74.3203C206.801 74.1289 206.645 73.9785 206.434 73.8691C206.227 73.7598 205.965 73.7051 205.648 73.7051C205.344 73.7051 205.09 73.752 204.887 73.8457C204.684 73.9355 204.531 74.0586 204.43 74.2148C204.328 74.3672 204.277 74.5391 204.277 74.7305C204.277 74.875 204.312 75.0059 204.383 75.123C204.457 75.2402 204.566 75.3496 204.711 75.4512C204.855 75.5527 205.033 75.6484 205.244 75.7383C205.455 75.8281 205.699 75.916 205.977 76.002C206.441 76.1426 206.85 76.3008 207.201 76.4766C207.557 76.6523 207.854 76.8496 208.092 77.0684C208.33 77.2871 208.51 77.5352 208.631 77.8125C208.752 78.0898 208.812 78.4043 208.812 78.7559C208.812 79.127 208.74 79.459 208.596 79.752C208.451 80.0449 208.242 80.293 207.969 80.4961C207.695 80.6992 207.369 80.8535 206.99 80.959C206.611 81.0645 206.188 81.1172 205.719 81.1172C205.297 81.1172 204.881 81.0625 204.471 80.9531C204.061 80.8398 203.688 80.6699 203.352 80.4434C203.02 80.2168 202.754 79.9277 202.555 79.5762C202.355 79.2246 202.256 78.8086 202.256 78.3281H204.02C204.02 78.5938 204.061 78.8184 204.143 79.002C204.225 79.1855 204.34 79.334 204.488 79.4473C204.641 79.5605 204.82 79.6426 205.027 79.6934C205.238 79.7441 205.469 79.7695 205.719 79.7695C206.023 79.7695 206.273 79.7266 206.469 79.6406C206.668 79.5547 206.814 79.4355 206.908 79.2832C207.006 79.1309 207.055 78.959 207.055 78.7676Z" fill="white"/>
<path d="M310 37.9524H319.118V40.6191H310V37.9524ZM310 33H319.118V35.6666H310V33ZM326.359 42.8667H310V45.5334H325.746C327.47 45.5334 331.492 45.5714 332.986 47.9714V46.4858C332.258 44.1238 330.113 42.8667 326.359 42.8667H326.359ZM326.397 47.819H310V50.4856H325.746C329.577 50.4856 331.99 50.638 332.986 51.1714V49.9904C332.22 48.1238 329.002 47.819 326.397 47.819H326.397ZM326.359 60.3904H310V57.7237H325.746C327.47 57.7237 331.492 57.6857 332.986 55.2857V56.7713C332.258 59.1333 330.113 60.3904 326.359 60.3904H326.359ZM326.397 55.4381H310V52.7714H325.746C329.577 52.7714 331.99 52.619 332.986 52.0857V53.2667C332.22 55.1333 329.002 55.4381 326.397 55.4381H326.397ZM336.97 65H349V63.3618H337.315C336.281 63.3618 333.829 63.3238 332.948 61.9142V62.8286C333.369 64.238 334.672 65 336.97 65V65ZM336.932 61.9904H348.962V60.3523H337.315C334.978 60.3523 333.522 60.2762 332.948 59.9333V60.6571C333.407 61.8 335.361 61.9904 336.932 61.9904H336.932Z" fill="url(#paint5_linear_3_29)"/>
<rect x="266.25" y="0.25" width="122.5" height="161.5" rx="13.75" stroke="url(#paint6_linear_3_29)" stroke-width="0.5"/>
<path d="M321.102 77.2559H318.91L318.898 76.0488H320.738C321.062 76.0488 321.328 76.0078 321.535 75.9258C321.742 75.8398 321.896 75.7168 321.998 75.5566C322.104 75.3926 322.156 75.1934 322.156 74.959C322.156 74.6934 322.105 74.4785 322.004 74.3145C321.906 74.1504 321.752 74.0312 321.541 73.957C321.334 73.8828 321.066 73.8457 320.738 73.8457H319.52V81H317.762V72.4688H320.738C321.234 72.4688 321.678 72.5156 322.068 72.6094C322.463 72.7031 322.797 72.8457 323.07 73.0371C323.344 73.2285 323.553 73.4707 323.697 73.7637C323.842 74.0527 323.914 74.3965 323.914 74.7949C323.914 75.1465 323.834 75.4707 323.674 75.7676C323.518 76.0645 323.27 76.3066 322.93 76.4941C322.594 76.6816 322.154 76.7852 321.611 76.8047L321.102 77.2559ZM321.025 81H318.43L319.115 79.6289H321.025C321.334 79.6289 321.586 79.5801 321.781 79.4824C321.977 79.3809 322.121 79.2441 322.215 79.0723C322.309 78.9004 322.355 78.7031 322.355 78.4805C322.355 78.2305 322.312 78.0137 322.227 77.8301C322.145 77.6465 322.012 77.5059 321.828 77.4082C321.645 77.3066 321.402 77.2559 321.102 77.2559H319.408L319.42 76.0488H321.529L321.934 76.5234C322.453 76.5156 322.871 76.6074 323.188 76.7988C323.508 76.9863 323.74 77.2305 323.885 77.5312C324.033 77.832 324.107 78.1543 324.107 78.498C324.107 79.0449 323.988 79.5059 323.75 79.8809C323.512 80.252 323.162 80.5312 322.701 80.7188C322.244 80.9062 321.686 81 321.025 81ZM331.15 79.6289V81H326.609V79.6289H331.15ZM327.184 72.4688V81H325.426V72.4688H327.184ZM330.559 75.9434V77.2793H326.609V75.9434H330.559ZM331.145 72.4688V73.8457H326.609V72.4688H331.145ZM332.979 72.4688H334.467L336.658 78.7324L338.85 72.4688H340.338L337.256 81H336.061L332.979 72.4688ZM332.176 72.4688H333.658L333.928 78.5742V81H332.176V72.4688ZM339.658 72.4688H341.146V81H339.389V78.5742L339.658 72.4688Z" fill="white"/>
<defs>
<linearGradient id="paint0_linear_3_29" x1="61.4051" y1="33" x2="61.4051" y2="64" gradientUnits="userSpaceOnUse">
<stop stop-color="#FF5B8D"/>
<stop offset="1" stop-color="#FEE140"/>
</linearGradient>
<linearGradient id="paint1_linear_3_29" x1="61.3979" y1="45.2605" x2="61.3979" y2="51.7468" gradientUnits="userSpaceOnUse">
<stop stop-color="#FF5B8D"/>
<stop offset="1" stop-color="#FEE140"/>
</linearGradient>
<linearGradient id="paint2_linear_3_29" x1="61.5" y1="0" x2="61.5" y2="162" gradientUnits="userSpaceOnUse">
<stop stop-color="#FF5B8D"/>
<stop offset="1" stop-color="#FEE140" stop-opacity="0"/>
</linearGradient>
<linearGradient id="paint3_linear_3_29" x1="194.5" y1="0" x2="194.5" y2="162" gradientUnits="userSpaceOnUse">
<stop stop-color="#FF5B8D"/>
<stop offset="1" stop-color="#FEE140" stop-opacity="0"/>
</linearGradient>
<linearGradient id="paint4_linear_3_29" x1="195" y1="33" x2="195" y2="64" gradientUnits="userSpaceOnUse">
<stop stop-color="#FF5B8D"/>
<stop offset="1" stop-color="#FEE140"/>
</linearGradient>
<linearGradient id="paint5_linear_3_29" x1="329.5" y1="33" x2="329.5" y2="65" gradientUnits="userSpaceOnUse">
<stop stop-color="#FF5B8D"/>
<stop offset="1" stop-color="#FEE140"/>
</linearGradient>
<linearGradient id="paint6_linear_3_29" x1="327.5" y1="0" x2="327.5" y2="162" gradientUnits="userSpaceOnUse">
<stop stop-color="#FF5B8D"/>
<stop offset="1" stop-color="#FEE140" stop-opacity="0"/>
</linearGradient>
</defs>
</svg>
