<svg width="395" height="366" viewBox="0 0 395 366" fill="none" xmlns="http://www.w3.org/2000/svg">
<rect x="72.25" y="265.25" width="75.5" height="99.5976" rx="13.75" stroke="url(#paint0_linear_3_71)" stroke-width="0.5"/>
<path d="M109.345 287.005C109.302 287.009 109.165 287.023 109.042 287.033C106.202 287.289 103.542 288.822 101.855 291.178C100.924 292.471 100.318 293.97 100.09 295.547C100.01 296.097 100 296.258 100 297.003C100 297.748 100.01 297.911 100.09 298.46C100.633 302.216 103.307 305.371 106.931 306.54C107.58 306.749 108.264 306.892 109.042 306.978C109.345 307.012 110.655 307.012 110.958 306.978C112.301 306.829 113.439 306.497 114.561 305.924C114.733 305.837 114.767 305.813 114.743 305.793C114.195 305.07 113.652 304.342 113.114 303.61L111.515 301.449L109.512 298.483C108.845 297.491 108.172 296.504 107.493 295.52C107.486 295.518 107.478 296.835 107.474 298.445C107.468 301.262 107.466 301.375 107.431 301.442C107.397 301.52 107.336 301.583 107.259 301.619C107.197 301.651 107.142 301.657 106.847 301.657H106.508L106.418 301.6C106.363 301.565 106.317 301.515 106.287 301.457L106.246 301.369L106.25 297.449L106.256 293.528L106.317 293.451C106.358 293.403 106.407 293.363 106.462 293.332C106.542 293.293 106.572 293.289 106.912 293.289C107.31 293.289 107.377 293.304 107.48 293.418C107.509 293.449 108.594 295.084 109.892 297.053L113.837 303.029L115.421 305.428L115.502 305.375C116.264 304.868 116.955 304.262 117.556 303.573C118.816 302.13 119.633 300.355 119.91 298.46C119.99 297.91 120 297.748 120 297.003C120 296.258 119.99 296.097 119.91 295.547C119.367 291.792 116.693 288.636 113.069 287.467C112.392 287.251 111.694 287.105 110.988 287.031C110.799 287.011 109.507 286.989 109.346 287.006L109.345 287.005ZM113.439 293.055C113.486 293.078 113.527 293.111 113.561 293.15C113.595 293.19 113.621 293.236 113.637 293.285C113.652 293.335 113.656 294.423 113.652 296.873L113.646 300.388L113.027 299.438L112.405 298.488V295.933C112.405 294.28 112.413 293.352 112.424 293.307C112.438 293.255 112.462 293.206 112.496 293.164C112.529 293.121 112.57 293.086 112.617 293.06C112.698 293.018 112.727 293.015 113.034 293.015C113.323 293.015 113.374 293.02 113.439 293.055Z" fill="url(#paint1_linear_3_71)"/>
<path d="M101.853 314.734V319H100.974L99.2598 316.141V319H98.3809V314.734H99.2598L100.977 317.597V314.734H101.853ZM105.479 318.314V319H103.209V318.314H105.479ZM103.496 314.734V319H102.617V314.734H103.496ZM105.184 316.472V317.14H103.209V316.472H105.184ZM105.477 314.734V315.423H103.209V314.734H105.477ZM106.716 314.734L107.519 316.223L108.321 314.734H109.326L108.087 316.85L109.358 319H108.345L107.519 317.482L106.692 319H105.673L106.947 316.85L105.705 314.734H106.716ZM111.708 314.734V319H110.832V314.734H111.708ZM113.021 314.734V315.423H109.54V314.734H113.021ZM112.789 318.593C112.789 318.468 112.832 318.363 112.918 318.279C113.006 318.195 113.122 318.153 113.267 318.153C113.411 318.153 113.526 318.195 113.612 318.279C113.7 318.363 113.744 318.468 113.744 318.593C113.744 318.718 113.7 318.822 113.612 318.906C113.526 318.99 113.411 319.032 113.267 319.032C113.122 319.032 113.006 318.99 112.918 318.906C112.832 318.822 112.789 318.718 112.789 318.593ZM116.267 317.69V314.734H117.143V317.69C117.143 317.976 117.08 318.221 116.955 318.426C116.83 318.629 116.659 318.785 116.442 318.895C116.228 319.004 115.985 319.059 115.716 319.059C115.437 319.059 115.189 319.012 114.975 318.918C114.76 318.824 114.591 318.681 114.468 318.487C114.345 318.292 114.283 318.045 114.283 317.746H115.165C115.165 317.902 115.187 318.026 115.229 318.118C115.274 318.21 115.338 318.275 115.42 318.314C115.502 318.354 115.601 318.373 115.716 318.373C115.827 318.373 115.924 318.347 116.006 318.294C116.088 318.241 116.151 318.164 116.196 318.062C116.243 317.961 116.267 317.837 116.267 317.69ZM120.113 317.884C120.113 317.808 120.102 317.739 120.078 317.679C120.057 317.616 120.016 317.56 119.955 317.509C119.895 317.456 119.81 317.404 119.7 317.354C119.591 317.303 119.449 317.25 119.275 317.195C119.082 317.133 118.898 317.062 118.725 316.984C118.553 316.906 118.4 316.815 118.268 316.712C118.137 316.606 118.033 316.484 117.957 316.346C117.883 316.207 117.846 316.046 117.846 315.862C117.846 315.685 117.885 315.523 117.963 315.379C118.041 315.232 118.15 315.107 118.291 315.004C118.432 314.898 118.598 314.817 118.789 314.761C118.982 314.704 119.194 314.676 119.425 314.676C119.739 314.676 120.014 314.732 120.248 314.846C120.482 314.959 120.664 315.114 120.793 315.312C120.924 315.509 120.989 315.734 120.989 315.988H120.116C120.116 315.863 120.09 315.754 120.037 315.66C119.986 315.564 119.908 315.489 119.803 315.435C119.699 315.38 119.568 315.353 119.41 315.353C119.258 315.353 119.131 315.376 119.029 315.423C118.928 315.468 118.852 315.529 118.801 315.607C118.75 315.684 118.725 315.77 118.725 315.865C118.725 315.937 118.742 316.003 118.777 316.062C118.814 316.12 118.869 316.175 118.941 316.226C119.014 316.276 119.103 316.324 119.208 316.369C119.313 316.414 119.436 316.458 119.574 316.501C119.807 316.571 120.011 316.65 120.187 316.738C120.364 316.826 120.513 316.925 120.632 317.034C120.751 317.144 120.841 317.268 120.901 317.406C120.962 317.545 120.992 317.702 120.992 317.878C120.992 318.063 120.956 318.229 120.884 318.376C120.812 318.522 120.707 318.646 120.57 318.748C120.434 318.85 120.271 318.927 120.081 318.979C119.892 319.032 119.68 319.059 119.445 319.059C119.234 319.059 119.026 319.031 118.821 318.977C118.616 318.92 118.43 318.835 118.262 318.722C118.096 318.608 117.963 318.464 117.863 318.288C117.764 318.112 117.714 317.904 117.714 317.664H118.596C118.596 317.797 118.616 317.909 118.657 318.001C118.698 318.093 118.756 318.167 118.83 318.224C118.906 318.28 118.996 318.321 119.1 318.347C119.205 318.372 119.32 318.385 119.445 318.385C119.598 318.385 119.723 318.363 119.82 318.32C119.92 318.277 119.993 318.218 120.04 318.142C120.089 318.065 120.113 317.979 120.113 317.884Z" fill="white"/>
<rect x="158.25" y="265.25" width="75.5" height="99.5976" rx="13.75" stroke="url(#paint2_linear_3_71)" stroke-width="0.5"/>
<path d="M174.381 313.734H175.972C176.298 313.734 176.578 313.783 176.812 313.881C177.049 313.979 177.23 314.123 177.357 314.314C177.484 314.506 177.548 314.741 177.548 315.02C177.548 315.249 177.509 315.445 177.431 315.609C177.354 315.771 177.246 315.907 177.105 316.017C176.967 316.124 176.804 316.21 176.616 316.274L176.338 316.421H174.955L174.949 315.735H175.978C176.132 315.735 176.26 315.708 176.361 315.653C176.463 315.599 176.539 315.522 176.59 315.425C176.643 315.327 176.669 315.214 176.669 315.085C176.669 314.948 176.644 314.83 176.593 314.73C176.542 314.631 176.465 314.555 176.361 314.502C176.258 314.449 176.128 314.423 175.972 314.423H175.26V318H174.381V313.734ZM176.766 318L175.793 316.099L176.722 316.093L177.706 317.959V318H176.766ZM181.087 317.314V318H178.816V317.314H181.087ZM179.104 313.734V318H178.225V313.734H179.104ZM180.791 315.472V316.14H178.816V315.472H180.791ZM181.084 313.734V314.423H178.816V313.734H181.084ZM182.909 318H181.98L181.986 317.314H182.909C183.14 317.314 183.334 317.263 183.492 317.159C183.65 317.054 183.77 316.9 183.85 316.699C183.932 316.498 183.973 316.255 183.973 315.97V315.762C183.973 315.543 183.949 315.351 183.902 315.185C183.857 315.019 183.79 314.879 183.7 314.766C183.61 314.652 183.5 314.567 183.369 314.511C183.238 314.452 183.088 314.423 182.918 314.423H181.963V313.734H182.918C183.203 313.734 183.464 313.783 183.7 313.881C183.938 313.977 184.145 314.114 184.318 314.294C184.492 314.474 184.626 314.688 184.72 314.938C184.815 315.187 184.863 315.463 184.863 315.768V315.97C184.863 316.272 184.815 316.549 184.72 316.799C184.626 317.049 184.492 317.264 184.318 317.443C184.146 317.621 183.94 317.759 183.7 317.856C183.462 317.952 183.198 318 182.909 318ZM182.479 313.734V318H181.6V313.734H182.479ZM187.857 313.734H188.733V316.553C188.733 316.881 188.663 317.157 188.522 317.382C188.384 317.606 188.191 317.775 187.945 317.889C187.701 318.002 187.42 318.059 187.102 318.059C186.783 318.059 186.5 318.002 186.252 317.889C186.006 317.775 185.812 317.606 185.672 317.382C185.533 317.157 185.464 316.881 185.464 316.553V313.734H186.343V316.553C186.343 316.744 186.373 316.9 186.434 317.021C186.494 317.143 186.581 317.231 186.694 317.288C186.81 317.345 186.945 317.373 187.102 317.373C187.262 317.373 187.397 317.345 187.509 317.288C187.622 317.231 187.708 317.143 187.767 317.021C187.827 316.9 187.857 316.744 187.857 316.553V313.734ZM190.181 313.734L190.983 315.223L191.786 313.734H192.791L191.552 315.85L192.823 318H191.81L190.983 316.482L190.157 318H189.138L190.412 315.85L189.17 313.734H190.181ZM196.509 313.734V318H195.633V313.734H196.509ZM197.821 313.734V314.423H194.341V313.734H197.821ZM201.744 315.768V315.97C201.744 316.294 201.7 316.585 201.612 316.843C201.524 317.101 201.4 317.32 201.24 317.502C201.08 317.682 200.889 317.819 200.666 317.915C200.445 318.011 200.2 318.059 199.931 318.059C199.663 318.059 199.418 318.011 199.195 317.915C198.975 317.819 198.783 317.682 198.621 317.502C198.459 317.32 198.333 317.101 198.243 316.843C198.155 316.585 198.111 316.294 198.111 315.97V315.768C198.111 315.441 198.155 315.15 198.243 314.895C198.331 314.637 198.455 314.417 198.615 314.235C198.777 314.054 198.969 313.915 199.189 313.819C199.412 313.724 199.657 313.676 199.925 313.676C200.194 313.676 200.439 313.724 200.66 313.819C200.883 313.915 201.074 314.054 201.234 314.235C201.396 314.417 201.521 314.637 201.609 314.895C201.699 315.15 201.744 315.441 201.744 315.768ZM200.856 315.97V315.762C200.856 315.535 200.836 315.336 200.795 315.164C200.754 314.992 200.693 314.848 200.613 314.73C200.533 314.613 200.436 314.525 200.32 314.467C200.205 314.406 200.073 314.376 199.925 314.376C199.776 314.376 199.645 314.406 199.529 314.467C199.416 314.525 199.319 314.613 199.239 314.73C199.161 314.848 199.102 314.992 199.061 315.164C199.02 315.336 198.999 315.535 198.999 315.762V315.97C198.999 316.194 199.02 316.394 199.061 316.567C199.102 316.739 199.162 316.885 199.242 317.004C199.322 317.121 199.42 317.21 199.535 317.27C199.65 317.331 199.782 317.361 199.931 317.361C200.079 317.361 200.211 317.331 200.326 317.27C200.441 317.21 200.538 317.121 200.616 317.004C200.694 316.885 200.754 316.739 200.795 316.567C200.836 316.394 200.856 316.194 200.856 315.97ZM205.881 315.768V315.97C205.881 316.294 205.837 316.585 205.749 316.843C205.661 317.101 205.537 317.32 205.377 317.502C205.217 317.682 205.025 317.819 204.803 317.915C204.582 318.011 204.337 318.059 204.067 318.059C203.8 318.059 203.555 318.011 203.332 317.915C203.111 317.819 202.92 317.682 202.758 317.502C202.596 317.32 202.47 317.101 202.38 316.843C202.292 316.585 202.248 316.294 202.248 315.97V315.768C202.248 315.441 202.292 315.15 202.38 314.895C202.468 314.637 202.592 314.417 202.752 314.235C202.914 314.054 203.105 313.915 203.326 313.819C203.549 313.724 203.794 313.676 204.062 313.676C204.331 313.676 204.576 313.724 204.797 313.819C205.02 313.915 205.211 314.054 205.371 314.235C205.533 314.417 205.658 314.637 205.746 314.895C205.836 315.15 205.881 315.441 205.881 315.768ZM204.993 315.97V315.762C204.993 315.535 204.973 315.336 204.932 315.164C204.891 314.992 204.83 314.848 204.75 314.73C204.67 314.613 204.572 314.525 204.457 314.467C204.342 314.406 204.21 314.376 204.062 314.376C203.913 314.376 203.781 314.406 203.666 314.467C203.553 314.525 203.456 314.613 203.376 314.73C203.298 314.848 203.238 314.992 203.197 315.164C203.156 315.336 203.136 315.535 203.136 315.762V315.97C203.136 316.194 203.156 316.394 203.197 316.567C203.238 316.739 203.299 316.885 203.379 317.004C203.459 317.121 203.557 317.21 203.672 317.27C203.787 317.331 203.919 317.361 204.067 317.361C204.216 317.361 204.348 317.331 204.463 317.27C204.578 317.21 204.675 317.121 204.753 317.004C204.831 316.885 204.891 316.739 204.932 316.567C204.973 316.394 204.993 316.194 204.993 315.97ZM209.256 317.314V318H207.108V317.314H209.256ZM207.393 313.734V318H206.514V313.734H207.393ZM210.639 313.734V318H209.76V313.734H210.639ZM213.193 313.734L211.503 315.841L210.527 316.89L210.369 316.058L211.028 315.155L212.115 313.734H213.193ZM212.194 318L210.938 316.028L211.588 315.483L213.234 318H212.194ZM214.509 313.734V318H213.633V313.734H214.509ZM217.151 313.734V318H216.275V313.734H217.151ZM218.464 313.734V314.423H214.983V313.734H218.464Z" fill="white"/>
<path d="M199.551 301.055C200.326 300.975 200.914 300.3 200.888 299.491C200.874 299.102 200.711 298.733 200.433 298.461C200.154 298.19 199.781 298.036 199.391 298.034H199.337C198.508 298.06 197.867 298.762 197.893 299.598C197.921 300.003 198.081 300.353 198.322 300.596C197.413 302.404 196.023 303.726 193.938 304.832C192.523 305.588 191.053 305.857 189.583 305.668C188.38 305.506 187.445 304.966 186.857 304.076C186.002 302.755 185.922 301.325 186.643 299.895C187.151 298.87 187.953 298.114 188.461 297.737C188.323 297.284 188.207 296.825 188.113 296.361C184.238 299.194 184.64 303.025 185.814 304.832C186.696 306.182 188.486 307.018 190.465 307.018C191.005 307.022 191.543 306.958 192.068 306.829C195.489 306.155 198.081 304.104 199.551 301.056L199.551 301.055ZM204.255 297.71C202.224 295.309 199.23 293.987 195.81 293.987H195.382C195.26 293.744 195.073 293.54 194.842 293.397C194.611 293.254 194.345 293.178 194.073 293.177H194.019C193.191 293.205 192.549 293.906 192.576 294.743C192.602 295.552 193.271 296.199 194.072 296.199H194.126C194.409 296.184 194.681 296.091 194.913 295.928C195.144 295.766 195.325 295.542 195.435 295.282H195.917C197.948 295.282 199.872 295.875 201.609 297.035C202.945 297.926 203.907 299.085 204.441 300.489C204.896 301.621 204.87 302.727 204.388 303.672C203.639 305.102 202.384 305.884 200.727 305.884C199.658 305.884 198.642 305.56 198.108 305.317C197.723 305.66 197.322 305.985 196.905 306.288C198.054 306.828 199.23 307.125 200.353 307.125C202.918 307.125 204.815 305.695 205.537 304.265C206.312 302.701 206.258 300.003 204.255 297.71ZM190.679 301.514C190.705 302.323 191.374 302.97 192.175 302.97H192.229C193.057 302.944 193.699 302.242 193.672 301.406C193.659 301.017 193.496 300.648 193.217 300.377C192.938 300.105 192.565 299.952 192.176 299.949H192.122C192.058 299.945 191.995 299.954 191.935 299.975C190.839 298.141 190.385 296.145 190.545 293.987C190.652 292.368 191.186 290.965 192.122 289.805C192.897 288.808 194.393 288.322 195.409 288.295C198.242 288.241 199.444 291.802 199.524 293.232C199.872 293.312 200.46 293.501 200.86 293.636C200.539 289.266 197.868 287 195.302 287C192.897 287 190.679 288.753 189.797 291.343C188.568 294.796 189.369 298.114 190.866 300.731C190.732 300.92 190.652 301.217 190.679 301.514Z" fill="url(#paint3_linear_3_71)"/>
<rect x="244.25" y="265.25" width="75.5" height="99.5976" rx="13.75" stroke="url(#paint4_linear_3_71)" stroke-width="0.5"/>
<path d="M274.938 287C274.418 287 274 287.418 274 287.937V306.062C274 306.582 274.418 307 274.938 307H293.062C293.582 307 294 306.582 294 306.062V287.937C294 287.418 293.582 287 293.062 287H274.938ZM289.407 295.125C289.917 295.125 290.368 295.156 290.762 295.217C291.134 295.273 291.499 295.368 291.851 295.501V297.549C291.682 297.432 291.503 297.332 291.315 297.248C291.122 297.161 290.922 297.089 290.718 297.032C290.33 296.924 289.931 296.868 289.529 296.865C289.279 296.865 289.052 296.888 288.847 296.937C288.664 296.976 288.489 297.044 288.328 297.138C288.186 297.225 288.077 297.329 288 297.45C287.922 297.572 287.881 297.714 287.883 297.858C287.883 298.022 287.927 298.169 288.013 298.299C288.1 298.429 288.223 298.552 288.383 298.669C288.542 298.786 288.735 298.899 288.962 299.011C289.19 299.123 289.448 299.239 289.734 299.357C290.126 299.522 290.477 299.697 290.789 299.881C291.101 300.066 291.368 300.275 291.592 300.508C291.815 300.741 291.985 301.007 292.103 301.306C292.222 301.605 292.282 301.952 292.282 302.35C292.282 302.897 292.177 303.358 291.971 303.73C291.769 304.097 291.479 304.407 291.127 304.634C290.748 304.874 290.328 305.043 289.888 305.131C289.417 305.231 288.919 305.281 288.397 305.281C287.882 305.283 287.369 305.237 286.863 305.144C286.426 305.068 286.001 304.93 285.603 304.733V302.542C286.356 303.183 287.312 303.537 288.301 303.542C288.578 303.542 288.821 303.517 289.028 303.467C289.235 303.417 289.407 303.347 289.547 303.258C289.685 303.168 289.788 303.063 289.857 302.942C289.934 302.8 289.969 302.64 289.958 302.479C289.947 302.318 289.891 302.164 289.796 302.034C289.672 301.87 289.521 301.729 289.348 301.617C289.135 301.476 288.91 301.352 288.676 301.247C288.399 301.121 288.119 301 287.837 300.884C287.072 300.565 286.502 300.174 286.126 299.713C285.751 299.252 285.562 298.695 285.562 298.042C285.562 297.531 285.665 297.092 285.87 296.724C286.075 296.357 286.353 296.054 286.707 295.817C287.08 295.57 287.495 295.393 287.932 295.292C288.415 295.179 288.91 295.122 289.407 295.125ZM276.812 295.282H284.782V297.087H281.922V305.125H279.657V297.087H276.812V295.282Z" fill="url(#paint5_linear_3_71)"/>
<path d="M268.288 313.734V318H267.412V313.734H268.288ZM269.601 313.734V314.423H266.12V313.734H269.601ZM270.734 313.734L271.625 315.68L272.516 313.734H273.474L272.07 316.447V318H271.18V316.447L269.773 313.734H270.734ZM275.524 316.479H274.438V315.794H275.524C275.692 315.794 275.829 315.767 275.935 315.712C276.04 315.655 276.117 315.577 276.166 315.478C276.215 315.378 276.239 315.266 276.239 315.141C276.239 315.014 276.215 314.895 276.166 314.786C276.117 314.677 276.04 314.589 275.935 314.522C275.829 314.456 275.692 314.423 275.524 314.423H274.742V318H273.863V313.734H275.524C275.858 313.734 276.145 313.795 276.383 313.916C276.623 314.035 276.807 314.2 276.934 314.411C277.061 314.622 277.124 314.863 277.124 315.135C277.124 315.41 277.061 315.648 276.934 315.85C276.807 316.051 276.623 316.206 276.383 316.315C276.145 316.425 275.858 316.479 275.524 316.479ZM280.593 317.314V318H278.322V317.314H280.593ZM278.609 313.734V318H277.73V313.734H278.609ZM280.297 315.472V316.14H278.322V315.472H280.297ZM280.59 313.734V314.423H278.322V313.734H280.59ZM283.326 316.884C283.326 316.808 283.314 316.739 283.291 316.679C283.27 316.616 283.229 316.56 283.168 316.509C283.107 316.456 283.022 316.404 282.913 316.354C282.804 316.303 282.662 316.25 282.488 316.195C282.295 316.133 282.111 316.062 281.938 315.984C281.766 315.906 281.613 315.815 281.48 315.712C281.35 315.606 281.246 315.484 281.17 315.346C281.096 315.207 281.059 315.046 281.059 314.862C281.059 314.685 281.098 314.523 281.176 314.379C281.254 314.232 281.363 314.107 281.504 314.004C281.645 313.898 281.811 313.817 282.002 313.761C282.195 313.704 282.407 313.676 282.638 313.676C282.952 313.676 283.227 313.732 283.461 313.846C283.695 313.959 283.877 314.114 284.006 314.312C284.137 314.509 284.202 314.734 284.202 314.988H283.329C283.329 314.863 283.303 314.754 283.25 314.66C283.199 314.564 283.121 314.489 283.016 314.435C282.912 314.38 282.781 314.353 282.623 314.353C282.471 314.353 282.344 314.376 282.242 314.423C282.141 314.468 282.064 314.529 282.014 314.607C281.963 314.684 281.938 314.77 281.938 314.865C281.938 314.937 281.955 315.003 281.99 315.062C282.027 315.12 282.082 315.175 282.154 315.226C282.227 315.276 282.315 315.324 282.421 315.369C282.526 315.414 282.648 315.458 282.787 315.501C283.02 315.571 283.224 315.65 283.399 315.738C283.577 315.826 283.726 315.925 283.845 316.034C283.964 316.144 284.054 316.268 284.114 316.406C284.175 316.545 284.205 316.702 284.205 316.878C284.205 317.063 284.169 317.229 284.097 317.376C284.024 317.522 283.92 317.646 283.783 317.748C283.646 317.85 283.483 317.927 283.294 317.979C283.104 318.032 282.893 318.059 282.658 318.059C282.447 318.059 282.239 318.031 282.034 317.977C281.829 317.92 281.643 317.835 281.475 317.722C281.309 317.608 281.176 317.464 281.076 317.288C280.977 317.112 280.927 316.904 280.927 316.664H281.809C281.809 316.797 281.829 316.909 281.87 317.001C281.911 317.093 281.969 317.167 282.043 317.224C282.119 317.28 282.209 317.321 282.312 317.347C282.418 317.372 282.533 317.385 282.658 317.385C282.811 317.385 282.936 317.363 283.033 317.32C283.133 317.277 283.206 317.218 283.253 317.142C283.302 317.065 283.326 316.979 283.326 316.884ZM287.275 316.585H288.151C288.134 316.872 288.055 317.127 287.914 317.35C287.775 317.572 287.581 317.746 287.331 317.871C287.083 317.996 286.784 318.059 286.435 318.059C286.161 318.059 285.916 318.012 285.699 317.918C285.482 317.822 285.297 317.686 285.143 317.508C284.99 317.33 284.874 317.115 284.794 316.863C284.714 316.611 284.674 316.329 284.674 316.017V315.721C284.674 315.408 284.715 315.126 284.797 314.874C284.881 314.62 285 314.404 285.154 314.227C285.311 314.049 285.497 313.912 285.714 313.816C285.931 313.721 286.173 313.673 286.44 313.673C286.796 313.673 287.096 313.737 287.34 313.866C287.586 313.995 287.776 314.173 287.911 314.399C288.048 314.626 288.13 314.884 288.157 315.173H287.278C287.269 315.001 287.234 314.855 287.176 314.736C287.117 314.615 287.028 314.524 286.909 314.464C286.792 314.401 286.636 314.37 286.44 314.37C286.294 314.37 286.166 314.397 286.057 314.452C285.947 314.507 285.855 314.59 285.781 314.701C285.707 314.812 285.651 314.953 285.614 315.123C285.579 315.291 285.562 315.488 285.562 315.715V316.017C285.562 316.237 285.578 316.432 285.611 316.6C285.645 316.766 285.695 316.906 285.764 317.021C285.834 317.135 285.924 317.221 286.033 317.279C286.145 317.336 286.278 317.364 286.435 317.364C286.618 317.364 286.77 317.335 286.889 317.276C287.008 317.218 287.099 317.131 287.161 317.016C287.226 316.9 287.264 316.757 287.275 316.585ZM288.729 313.734H290.319C290.646 313.734 290.926 313.783 291.16 313.881C291.396 313.979 291.578 314.123 291.705 314.314C291.832 314.506 291.896 314.741 291.896 315.02C291.896 315.249 291.856 315.445 291.778 315.609C291.702 315.771 291.594 315.907 291.453 316.017C291.314 316.124 291.151 316.21 290.964 316.274L290.686 316.421H289.303L289.297 315.735H290.325C290.479 315.735 290.607 315.708 290.709 315.653C290.811 315.599 290.887 315.522 290.938 315.425C290.99 315.327 291.017 315.214 291.017 315.085C291.017 314.948 290.991 314.83 290.94 314.73C290.89 314.631 290.812 314.555 290.709 314.502C290.605 314.449 290.476 314.423 290.319 314.423H289.607V318H288.729V313.734ZM291.113 318L290.141 316.099L291.069 316.093L292.054 317.959V318H291.113ZM293.507 313.734V318H292.631V313.734H293.507ZM295.991 316.479H294.904V315.794H295.991C296.159 315.794 296.296 315.767 296.401 315.712C296.507 315.655 296.584 315.577 296.633 315.478C296.682 315.378 296.706 315.266 296.706 315.141C296.706 315.014 296.682 314.895 296.633 314.786C296.584 314.677 296.507 314.589 296.401 314.522C296.296 314.456 296.159 314.423 295.991 314.423H295.209V318H294.33V313.734H295.991C296.325 313.734 296.611 313.795 296.85 313.916C297.09 314.035 297.273 314.2 297.4 314.411C297.527 314.622 297.591 314.863 297.591 315.135C297.591 315.41 297.527 315.648 297.4 315.85C297.273 316.051 297.09 316.206 296.85 316.315C296.611 316.425 296.325 316.479 295.991 316.479ZM300.104 313.734V318H299.229V313.734H300.104ZM301.417 313.734V314.423H297.937V313.734H301.417Z" fill="white"/>
<path d="M214.81 127.504C214.81 125.197 211.922 123.012 207.494 121.657C208.517 117.145 208.063 113.553 206.061 112.403C205.576 112.132 205.027 111.995 204.472 112.007V113.588C204.798 113.588 205.06 113.653 205.281 113.774C206.245 114.328 206.665 116.434 206.338 119.145C206.26 119.812 206.132 120.514 205.976 121.231C204.493 120.873 202.988 120.615 201.471 120.457C200.567 119.21 199.581 118.025 198.519 116.91C200.832 114.76 203.004 113.582 204.48 113.582V112C202.528 112 199.974 113.391 197.391 115.803C194.809 113.407 192.253 112.029 190.302 112.029V113.61C191.772 113.61 193.95 114.782 196.264 116.917C195.27 117.961 194.277 119.145 193.332 120.457C191.812 120.613 190.304 120.874 188.82 121.238C188.663 120.559 188.54 119.872 188.45 119.181C188.117 116.469 188.529 114.363 189.487 113.803C189.699 113.675 189.976 113.617 190.302 113.617V112.036C189.708 112.036 189.167 112.164 188.7 112.432C186.705 113.582 186.259 117.165 187.287 121.664C182.873 123.028 180 125.205 180 127.504C180 129.81 182.888 131.996 187.316 133.349C186.293 137.863 186.747 141.454 188.749 142.603C189.21 142.872 189.75 143 190.344 143C192.297 143 194.851 141.609 197.434 139.197C200.016 141.595 202.57 142.971 204.522 142.971C205.082 142.983 205.636 142.846 206.125 142.574C208.119 141.425 208.566 137.842 207.538 133.343C211.937 131.988 214.81 129.803 214.81 127.504ZM205.571 122.771C205.295 123.719 204.976 124.654 204.614 125.573C204.021 124.42 203.37 123.297 202.663 122.21C203.671 122.359 204.643 122.543 205.572 122.771H205.571ZM202.322 130.328C201.791 131.255 201.22 132.16 200.612 133.038C198.483 133.226 196.342 133.229 194.213 133.046C192.991 131.301 191.923 129.454 191.02 127.525C191.922 125.592 192.985 123.739 194.2 121.985C196.328 121.797 198.469 121.794 200.598 121.976C201.186 122.82 201.762 123.722 202.315 124.674C202.854 125.602 203.345 126.545 203.791 127.496C203.34 128.459 202.85 129.404 202.322 130.328ZM204.614 129.405C204.997 130.355 205.324 131.307 205.593 132.229C204.665 132.457 203.684 132.648 202.67 132.796C203.374 131.699 204.023 130.567 204.614 129.405ZM197.42 136.976C196.76 136.295 196.1 135.536 195.447 134.705C196.085 134.734 196.738 134.756 197.398 134.756C198.065 134.756 198.725 134.741 199.37 134.705C198.732 135.536 198.072 136.295 197.42 136.976ZM192.14 132.796C191.162 132.655 190.191 132.468 189.231 132.236C189.493 131.321 189.819 130.377 190.188 129.434C190.479 130 190.785 130.568 191.119 131.137C191.453 131.704 191.792 132.258 192.14 132.796ZM197.383 118.031C198.043 118.713 198.703 119.471 199.356 120.302C198.718 120.273 198.065 120.251 197.405 120.251C196.738 120.251 196.078 120.266 195.433 120.302C196.071 119.471 196.731 118.713 197.383 118.031ZM192.133 122.211C191.429 123.306 190.781 124.435 190.189 125.595C189.817 124.67 189.49 123.728 189.21 122.771C190.138 122.55 191.119 122.359 192.133 122.211ZM185.712 131.093C183.2 130.023 181.575 128.618 181.575 127.504C181.575 126.39 183.2 124.977 185.712 123.914C186.321 123.651 186.988 123.416 187.677 123.197C188.082 124.587 188.614 126.034 189.273 127.518C188.651 128.914 188.125 130.35 187.699 131.817C187.025 131.609 186.362 131.367 185.712 131.093ZM189.529 141.232C188.565 140.681 188.146 138.572 188.472 135.862C188.55 135.195 188.678 134.492 188.835 133.775C190.224 134.116 191.743 134.379 193.34 134.55C194.243 135.797 195.23 136.982 196.291 138.098C193.978 140.247 191.806 141.425 190.33 141.425C190.051 141.428 189.776 141.362 189.529 141.233V141.232ZM206.36 135.826C206.694 138.537 206.282 140.645 205.323 141.204C205.111 141.332 204.834 141.389 204.508 141.389C203.039 141.389 200.86 140.218 198.547 138.082C199.604 136.971 200.583 135.788 201.478 134.543C202.998 134.387 204.506 134.126 205.99 133.762C206.154 134.479 206.28 135.166 206.36 135.826ZM209.091 131.093C208.482 131.356 207.815 131.591 207.126 131.81C206.692 130.335 206.159 128.892 205.53 127.489C206.183 126.014 206.707 124.574 207.104 123.19C207.78 123.399 208.446 123.641 209.098 123.914C211.611 124.984 213.235 126.39 213.235 127.504C213.228 128.618 211.603 130.03 209.091 131.093Z" fill="url(#paint6_linear_3_71)"/>
<path d="M197.398 130.747C198.258 130.747 199.083 130.405 199.691 129.797C200.299 129.189 200.641 128.364 200.641 127.504C200.641 126.643 200.299 125.819 199.691 125.21C199.083 124.602 198.258 124.26 197.398 124.26C196.538 124.26 195.713 124.602 195.105 125.21C194.496 125.819 194.155 126.643 194.155 127.504C194.155 128.364 194.496 129.189 195.105 129.797C195.713 130.405 196.538 130.747 197.398 130.747Z" fill="url(#paint7_linear_3_71)"/>
<rect x="136.25" y="79.25" width="122.5" height="161.5" rx="13.75" stroke="url(#paint8_linear_3_71)" stroke-width="0.5"/>
<path d="M178.762 151.469H181.943C182.596 151.469 183.156 151.566 183.625 151.762C184.098 151.957 184.461 152.246 184.715 152.629C184.969 153.012 185.096 153.482 185.096 154.041C185.096 154.498 185.018 154.891 184.861 155.219C184.709 155.543 184.492 155.814 184.211 156.033C183.934 156.248 183.607 156.42 183.232 156.549L182.676 156.842H179.91L179.898 155.471H181.955C182.264 155.471 182.52 155.416 182.723 155.307C182.926 155.197 183.078 155.045 183.18 154.85C183.285 154.654 183.338 154.428 183.338 154.17C183.338 153.896 183.287 153.66 183.186 153.461C183.084 153.262 182.93 153.109 182.723 153.004C182.516 152.898 182.256 152.846 181.943 152.846H180.52V160H178.762V151.469ZM183.531 160L181.586 156.197L183.443 156.186L185.412 159.918V160H183.531ZM192.174 158.629V160H187.633V158.629H192.174ZM188.207 151.469V160H186.449V151.469H188.207ZM191.582 154.943V156.279H187.633V154.943H191.582ZM192.168 151.469V152.846H187.633V151.469H192.168ZM196.668 152.928L194.348 160H192.479L195.648 151.469H196.838L196.668 152.928ZM198.596 160L196.27 152.928L196.082 151.469H197.283L200.471 160H198.596ZM198.49 156.824V158.201H193.984V156.824H198.49ZM206.102 157.17H207.854C207.818 157.744 207.66 158.254 207.379 158.699C207.102 159.145 206.713 159.492 206.213 159.742C205.717 159.992 205.119 160.117 204.42 160.117C203.873 160.117 203.383 160.023 202.949 159.836C202.516 159.645 202.145 159.371 201.836 159.016C201.531 158.66 201.299 158.23 201.139 157.727C200.979 157.223 200.898 156.658 200.898 156.033V155.441C200.898 154.816 200.98 154.252 201.145 153.748C201.312 153.24 201.551 152.809 201.859 152.453C202.172 152.098 202.545 151.824 202.979 151.633C203.412 151.441 203.896 151.346 204.432 151.346C205.143 151.346 205.742 151.475 206.23 151.732C206.723 151.99 207.104 152.346 207.373 152.799C207.646 153.252 207.811 153.768 207.865 154.346H206.107C206.088 154.002 206.02 153.711 205.902 153.473C205.785 153.23 205.607 153.049 205.369 152.928C205.135 152.803 204.822 152.74 204.432 152.74C204.139 152.74 203.883 152.795 203.664 152.904C203.445 153.014 203.262 153.18 203.113 153.402C202.965 153.625 202.854 153.906 202.779 154.246C202.709 154.582 202.674 154.977 202.674 155.43V156.033C202.674 156.475 202.707 156.863 202.773 157.199C202.84 157.531 202.941 157.812 203.078 158.043C203.219 158.27 203.398 158.441 203.617 158.559C203.84 158.672 204.107 158.729 204.42 158.729C204.787 158.729 205.09 158.67 205.328 158.553C205.566 158.436 205.748 158.262 205.873 158.031C206.002 157.801 206.078 157.514 206.102 157.17ZM212.646 151.469V160H210.895V151.469H212.646ZM215.271 151.469V152.846H208.311V151.469H215.271Z" fill="white"/>
<rect x="0.25" y="103.25" width="122.5" height="161.5" rx="13.75" stroke="url(#paint9_linear_3_71)" stroke-width="0.5"/>
<path d="M60.8636 159.436C60.8261 159.506 60.8448 159.475 60.8636 159.436V159.436ZM76.432 153.818C75.1747 153.818 73.9348 154.115 72.8074 154.69C72.4387 153.921 72.0575 153.25 71.995 152.746C71.92 152.158 71.8387 151.81 71.9262 151.112C72.0137 150.415 72.4074 149.427 72.4012 149.356C72.3949 149.285 72.3137 148.93 71.5075 148.923C70.7014 148.917 70.0077 149.085 69.9264 149.304C69.7838 149.705 69.673 150.118 69.5952 150.538C69.4515 151.293 67.9841 153.992 67.153 155.4C66.878 154.851 66.6468 154.367 66.5968 153.98C66.5218 153.392 66.4405 153.043 66.528 152.346C66.6155 151.648 67.0092 150.66 67.003 150.589C66.9967 150.518 66.9155 150.163 66.1106 150.157C65.3056 150.15 64.6107 150.318 64.5295 150.538C64.4482 150.757 64.3607 151.274 64.1982 151.771C64.0358 152.268 62.0797 156.763 61.5685 157.932C61.306 158.526 61.0811 159.004 60.9186 159.327C60.8936 159.378 60.8748 159.411 60.8623 159.436C60.8811 159.404 60.8936 159.372 60.8936 159.385C60.7561 159.662 60.6748 159.817 60.6748 159.817V159.824C60.5686 160.031 60.4499 160.218 60.3936 160.218C60.3561 160.218 60.2749 159.675 60.4124 158.933C60.7061 157.37 61.3998 154.942 61.3935 154.858C61.3873 154.813 61.5248 154.393 60.9373 154.167C60.3686 153.954 60.1624 154.309 60.1124 154.309C60.0624 154.309 60.0249 154.438 60.0249 154.438C60.0249 154.438 60.6561 151.7 58.8125 151.7C57.6626 151.7 56.0628 153.004 55.2766 154.186C54.7829 154.464 53.7143 155.064 52.5894 155.704L51.2958 156.44C51.2645 156.408 51.2395 156.375 51.2083 156.343C48.971 153.876 44.8414 152.133 45.0164 148.82C45.0789 147.612 45.4851 144.441 52.9581 140.593C59.0825 137.441 63.9783 138.306 64.8219 140.231C66.0343 142.975 62.2034 148.084 55.8441 148.82C53.4193 149.097 52.1457 148.129 51.827 147.767C51.4957 147.386 51.4457 147.367 51.3208 147.438C51.1145 147.554 51.2458 147.89 51.3208 148.09C51.5082 148.6 52.2894 149.504 53.6205 149.956C54.7892 150.35 57.6314 150.57 61.0673 149.194C64.9282 147.657 67.9341 143.376 67.0517 139.792C66.1543 136.15 60.3099 134.955 54.7842 136.983C51.4907 138.19 47.9298 140.089 45.3688 142.562C42.3254 145.507 41.8392 148.071 42.0392 149.143C42.7516 152.946 47.8249 155.426 49.8547 157.26L49.5734 157.422C48.5548 157.945 44.6877 160.037 43.719 162.246C42.6254 164.751 43.9002 166.546 44.7364 166.792C47.3487 167.541 50.0221 166.191 51.4595 163.976C52.8969 161.761 52.7219 158.868 52.0594 157.551C52.0532 157.531 52.0407 157.518 52.0344 157.499C52.7843 157.04 53.5406 156.592 54.303 156.156C54.053 156.853 53.8718 157.693 53.778 158.907C53.6655 160.328 54.2342 162.168 54.9717 162.891C55.2966 163.208 55.6891 163.214 55.9341 163.214C56.7965 163.214 57.1839 162.478 57.6151 161.6C58.1463 160.528 58.615 159.281 58.615 159.281C58.615 159.281 58.0276 162.652 59.6337 162.652C60.2211 162.652 60.8086 161.871 61.0711 161.471V161.477C61.0711 161.477 61.0836 161.451 61.1148 161.4C61.1773 161.303 61.2085 161.245 61.2085 161.245V161.225C61.446 160.805 61.9647 159.843 62.7459 158.255C63.7583 156.201 64.7257 153.637 64.7257 153.637C64.8194 154.2 64.9494 154.757 65.1132 155.303C65.2881 155.917 65.6569 156.589 65.9506 157.241C65.7131 157.577 65.5694 157.77 65.5694 157.77C65.5694 157.775 65.5719 157.779 65.5756 157.783C65.3881 158.042 65.1756 158.319 64.9569 158.59C64.1582 159.572 63.2071 160.696 63.0821 161.019C62.9321 161.4 62.9696 161.684 63.2571 161.903C63.4696 162.071 63.8445 162.097 64.2382 162.065C64.9569 162.013 65.4631 161.832 65.7068 161.716C66.1564 161.55 66.5813 161.319 66.9692 161.031C67.7504 160.437 68.2253 159.585 68.1816 158.461C68.1566 157.841 67.9629 157.221 67.7254 156.64C67.7941 156.537 67.8691 156.427 67.9379 156.317C68.7511 155.063 69.4839 153.756 70.1314 152.403C70.2252 152.966 70.3539 153.522 70.5189 154.069C70.6689 154.592 70.9626 155.166 71.2313 155.728C70.0689 156.703 69.3502 157.834 69.1015 158.576C68.6391 159.952 69.0015 160.572 69.6827 160.714C69.9889 160.778 70.4264 160.63 70.7514 160.488C71.2338 160.321 71.6888 160.08 72.1 159.771C72.8811 159.177 73.6373 158.344 73.5861 157.214C73.5673 156.703 73.4298 156.193 73.2486 155.702C74.2298 155.276 75.5046 155.044 77.1295 155.238C80.6091 155.657 81.2903 157.905 81.1591 158.841C81.0278 159.777 80.2967 160.3 80.0529 160.455C79.8092 160.61 79.7342 160.669 79.753 160.785C79.7842 160.953 79.8967 160.946 80.1029 160.907C80.3904 160.856 81.9277 160.145 81.9965 158.408C82.0965 156.213 80.0529 153.797 76.4345 153.817L76.432 153.818ZM49.6109 163.163C48.461 164.461 46.85 164.951 46.1563 164.538C45.4126 164.091 45.7063 162.181 47.1237 160.798C47.9861 159.958 49.0985 159.183 49.8359 158.705C50.0046 158.602 50.2484 158.447 50.5483 158.26C50.5727 158.244 50.5977 158.229 50.6233 158.215C50.6796 158.176 50.7421 158.144 50.8046 158.105C51.322 160.068 50.8233 161.799 49.6109 163.161V163.163ZM58.0076 157.26C57.6076 158.274 56.7652 160.857 56.2515 160.722C55.8141 160.605 55.5453 158.636 56.164 156.698C56.4765 155.723 57.1389 154.561 57.5327 154.109C58.1638 153.379 58.8575 153.146 59.02 153.437C59.2387 153.818 58.2576 156.627 58.0076 157.26ZM64.9444 160.683C64.7757 160.773 64.6195 160.831 64.5445 160.786C64.4882 160.754 64.6132 160.631 64.6132 160.631C64.6132 160.631 65.4819 159.669 65.8256 159.23C66.0256 158.971 66.2568 158.668 66.5068 158.332C66.5068 158.364 66.513 158.397 66.513 158.435C66.5055 159.591 65.4306 160.373 64.9432 160.683H64.9444ZM70.2939 159.423C70.1689 159.333 70.1877 159.03 70.6064 158.087C70.7688 157.719 71.1438 157.099 71.7937 156.505C71.8675 156.729 71.9075 156.964 71.9125 157.202C71.9062 158.655 70.9001 159.197 70.2939 159.423Z" fill="url(#paint10_linear_3_71)"/>
<path d="M51.2031 181.768C51.2031 181.615 51.1797 181.479 51.1328 181.357C51.0898 181.232 51.0078 181.119 50.8867 181.018C50.7656 180.912 50.5957 180.809 50.377 180.707C50.1582 180.605 49.875 180.5 49.5273 180.391C49.1406 180.266 48.7734 180.125 48.4258 179.969C48.082 179.812 47.7773 179.631 47.5117 179.424C47.25 179.213 47.043 178.969 46.8906 178.691C46.7422 178.414 46.668 178.092 46.668 177.725C46.668 177.369 46.7461 177.047 46.9023 176.758C47.0586 176.465 47.2773 176.215 47.5586 176.008C47.8398 175.797 48.1719 175.635 48.5547 175.521C48.9414 175.408 49.3652 175.352 49.8262 175.352C50.4551 175.352 51.0039 175.465 51.4727 175.691C51.9414 175.918 52.3047 176.229 52.5625 176.623C52.8242 177.018 52.9551 177.469 52.9551 177.977H51.209C51.209 177.727 51.1562 177.508 51.0508 177.32C50.9492 177.129 50.793 176.979 50.582 176.869C50.375 176.76 50.1133 176.705 49.7969 176.705C49.4922 176.705 49.2383 176.752 49.0352 176.846C48.832 176.936 48.6797 177.059 48.5781 177.215C48.4766 177.367 48.4258 177.539 48.4258 177.73C48.4258 177.875 48.4609 178.006 48.5312 178.123C48.6055 178.24 48.7148 178.35 48.8594 178.451C49.0039 178.553 49.1816 178.648 49.3926 178.738C49.6035 178.828 49.8477 178.916 50.125 179.002C50.5898 179.143 50.998 179.301 51.3496 179.477C51.7051 179.652 52.002 179.85 52.2402 180.068C52.4785 180.287 52.6582 180.535 52.7793 180.812C52.9004 181.09 52.9609 181.404 52.9609 181.756C52.9609 182.127 52.8887 182.459 52.7441 182.752C52.5996 183.045 52.3906 183.293 52.1172 183.496C51.8438 183.699 51.5176 183.854 51.1387 183.959C50.7598 184.064 50.3359 184.117 49.8672 184.117C49.4453 184.117 49.0293 184.062 48.6191 183.953C48.209 183.84 47.8359 183.67 47.5 183.443C47.168 183.217 46.9023 182.928 46.7031 182.576C46.5039 182.225 46.4043 181.809 46.4043 181.328H48.168C48.168 181.594 48.209 181.818 48.291 182.002C48.373 182.186 48.4883 182.334 48.6367 182.447C48.7891 182.561 48.9688 182.643 49.1758 182.693C49.3867 182.744 49.6172 182.77 49.8672 182.77C50.1719 182.77 50.4219 182.727 50.6172 182.641C50.8164 182.555 50.9629 182.436 51.0566 182.283C51.1543 182.131 51.2031 181.959 51.2031 181.768ZM57.625 176.928L55.3047 184H53.4355L56.6055 175.469H57.7949L57.625 176.928ZM59.5527 184L57.2266 176.928L57.0391 175.469H58.2402L61.4277 184H59.5527ZM59.4473 180.824V182.201H54.9414V180.824H59.4473ZM66.6602 181.768C66.6602 181.615 66.6367 181.479 66.5898 181.357C66.5469 181.232 66.4648 181.119 66.3438 181.018C66.2227 180.912 66.0527 180.809 65.834 180.707C65.6152 180.605 65.332 180.5 64.9844 180.391C64.5977 180.266 64.2305 180.125 63.8828 179.969C63.5391 179.812 63.2344 179.631 62.9688 179.424C62.707 179.213 62.5 178.969 62.3477 178.691C62.1992 178.414 62.125 178.092 62.125 177.725C62.125 177.369 62.2031 177.047 62.3594 176.758C62.5156 176.465 62.7344 176.215 63.0156 176.008C63.2969 175.797 63.6289 175.635 64.0117 175.521C64.3984 175.408 64.8223 175.352 65.2832 175.352C65.9121 175.352 66.4609 175.465 66.9297 175.691C67.3984 175.918 67.7617 176.229 68.0195 176.623C68.2812 177.018 68.4121 177.469 68.4121 177.977H66.666C66.666 177.727 66.6133 177.508 66.5078 177.32C66.4062 177.129 66.25 176.979 66.0391 176.869C65.832 176.76 65.5703 176.705 65.2539 176.705C64.9492 176.705 64.6953 176.752 64.4922 176.846C64.2891 176.936 64.1367 177.059 64.0352 177.215C63.9336 177.367 63.8828 177.539 63.8828 177.73C63.8828 177.875 63.918 178.006 63.9883 178.123C64.0625 178.24 64.1719 178.35 64.3164 178.451C64.4609 178.553 64.6387 178.648 64.8496 178.738C65.0605 178.828 65.3047 178.916 65.582 179.002C66.0469 179.143 66.4551 179.301 66.8066 179.477C67.1621 179.652 67.459 179.85 67.6973 180.068C67.9355 180.287 68.1152 180.535 68.2363 180.812C68.3574 181.09 68.418 181.404 68.418 181.756C68.418 182.127 68.3457 182.459 68.2012 182.752C68.0566 183.045 67.8477 183.293 67.5742 183.496C67.3008 183.699 66.9746 183.854 66.5957 183.959C66.2168 184.064 65.793 184.117 65.3242 184.117C64.9023 184.117 64.4863 184.062 64.0762 183.953C63.666 183.84 63.293 183.67 62.957 183.443C62.625 183.217 62.3594 182.928 62.1602 182.576C61.9609 182.225 61.8613 181.809 61.8613 181.328H63.625C63.625 181.594 63.666 181.818 63.748 182.002C63.8301 182.186 63.9453 182.334 64.0938 182.447C64.2461 182.561 64.4258 182.643 64.6328 182.693C64.8438 182.744 65.0742 182.77 65.3242 182.77C65.6289 182.77 65.8789 182.727 66.0742 182.641C66.2734 182.555 66.4199 182.436 66.5137 182.283C66.6113 182.131 66.6602 181.959 66.6602 181.768ZM74.0547 181.768C74.0547 181.615 74.0312 181.479 73.9844 181.357C73.9414 181.232 73.8594 181.119 73.7383 181.018C73.6172 180.912 73.4473 180.809 73.2285 180.707C73.0098 180.605 72.7266 180.5 72.3789 180.391C71.9922 180.266 71.625 180.125 71.2773 179.969C70.9336 179.812 70.6289 179.631 70.3633 179.424C70.1016 179.213 69.8945 178.969 69.7422 178.691C69.5938 178.414 69.5195 178.092 69.5195 177.725C69.5195 177.369 69.5977 177.047 69.7539 176.758C69.9102 176.465 70.1289 176.215 70.4102 176.008C70.6914 175.797 71.0234 175.635 71.4062 175.521C71.793 175.408 72.2168 175.352 72.6777 175.352C73.3066 175.352 73.8555 175.465 74.3242 175.691C74.793 175.918 75.1562 176.229 75.4141 176.623C75.6758 177.018 75.8066 177.469 75.8066 177.977H74.0605C74.0605 177.727 74.0078 177.508 73.9023 177.32C73.8008 177.129 73.6445 176.979 73.4336 176.869C73.2266 176.76 72.9648 176.705 72.6484 176.705C72.3438 176.705 72.0898 176.752 71.8867 176.846C71.6836 176.936 71.5312 177.059 71.4297 177.215C71.3281 177.367 71.2773 177.539 71.2773 177.73C71.2773 177.875 71.3125 178.006 71.3828 178.123C71.457 178.24 71.5664 178.35 71.7109 178.451C71.8555 178.553 72.0332 178.648 72.2441 178.738C72.4551 178.828 72.6992 178.916 72.9766 179.002C73.4414 179.143 73.8496 179.301 74.2012 179.477C74.5566 179.652 74.8535 179.85 75.0918 180.068C75.3301 180.287 75.5098 180.535 75.6309 180.812C75.752 181.09 75.8125 181.404 75.8125 181.756C75.8125 182.127 75.7402 182.459 75.5957 182.752C75.4512 183.045 75.2422 183.293 74.9688 183.496C74.6953 183.699 74.3691 183.854 73.9902 183.959C73.6113 184.064 73.1875 184.117 72.7188 184.117C72.2969 184.117 71.8809 184.062 71.4707 183.953C71.0605 183.84 70.6875 183.67 70.3516 183.443C70.0195 183.217 69.7539 182.928 69.5547 182.576C69.3555 182.225 69.2559 181.809 69.2559 181.328H71.0195C71.0195 181.594 71.0605 181.818 71.1426 182.002C71.2246 182.186 71.3398 182.334 71.4883 182.447C71.6406 182.561 71.8203 182.643 72.0273 182.693C72.2383 182.744 72.4688 182.77 72.7188 182.77C73.0234 182.77 73.2734 182.727 73.4688 182.641C73.668 182.555 73.8145 182.436 73.9082 182.283C74.0059 182.131 74.0547 181.959 74.0547 181.768Z" fill="white"/>
<path d="M316 144.952H325.118V147.619H316V144.952ZM316 140H325.118V142.667H316V140ZM332.359 149.867H316V152.533H331.746C333.47 152.533 337.492 152.571 338.986 154.971V153.486C338.258 151.124 336.113 149.867 332.359 149.867H332.359ZM332.397 154.819H316V157.486H331.746C335.577 157.486 337.99 157.638 338.986 158.171V156.99C338.22 155.124 335.002 154.819 332.397 154.819H332.397ZM332.359 167.39H316V164.724H331.746C333.47 164.724 337.492 164.686 338.986 162.286V163.771C338.258 166.133 336.113 167.39 332.359 167.39H332.359ZM332.397 162.438H316V159.771H331.746C335.577 159.771 337.99 159.619 338.986 159.086V160.267C338.22 162.133 335.002 162.438 332.397 162.438H332.397ZM342.97 172H355V170.362H343.315C342.281 170.362 339.829 170.324 338.948 168.914V169.829C339.369 171.238 340.672 172 342.97 172ZM342.932 168.99H354.962V167.352H343.315C340.978 167.352 339.522 167.276 338.948 166.933V167.657C339.407 168.8 341.361 168.99 342.932 168.99H342.932Z" fill="url(#paint11_linear_3_71)"/>
<rect x="272.25" y="107.25" width="122.5" height="161.5" rx="13.75" stroke="url(#paint12_linear_3_71)" stroke-width="0.5"/>
<path d="M327.102 184.256H324.91L324.898 183.049H326.738C327.062 183.049 327.328 183.008 327.535 182.926C327.742 182.84 327.896 182.717 327.998 182.557C328.104 182.393 328.156 182.193 328.156 181.959C328.156 181.693 328.105 181.479 328.004 181.314C327.906 181.15 327.752 181.031 327.541 180.957C327.334 180.883 327.066 180.846 326.738 180.846H325.52V188H323.762V179.469H326.738C327.234 179.469 327.678 179.516 328.068 179.609C328.463 179.703 328.797 179.846 329.07 180.037C329.344 180.229 329.553 180.471 329.697 180.764C329.842 181.053 329.914 181.396 329.914 181.795C329.914 182.146 329.834 182.471 329.674 182.768C329.518 183.064 329.27 183.307 328.93 183.494C328.594 183.682 328.154 183.785 327.611 183.805L327.102 184.256ZM327.025 188H324.43L325.115 186.629H327.025C327.334 186.629 327.586 186.58 327.781 186.482C327.977 186.381 328.121 186.244 328.215 186.072C328.309 185.9 328.355 185.703 328.355 185.48C328.355 185.23 328.312 185.014 328.227 184.83C328.145 184.646 328.012 184.506 327.828 184.408C327.645 184.307 327.402 184.256 327.102 184.256H325.408L325.42 183.049H327.529L327.934 183.523C328.453 183.516 328.871 183.607 329.188 183.799C329.508 183.986 329.74 184.23 329.885 184.531C330.033 184.832 330.107 185.154 330.107 185.498C330.107 186.045 329.988 186.506 329.75 186.881C329.512 187.252 329.162 187.531 328.701 187.719C328.244 187.906 327.686 188 327.025 188ZM337.15 186.629V188H332.609V186.629H337.15ZM333.184 179.469V188H331.426V179.469H333.184ZM336.559 182.943V184.279H332.609V182.943H336.559ZM337.145 179.469V180.846H332.609V179.469H337.145ZM338.979 179.469H340.467L342.658 185.732L344.85 179.469H346.338L343.256 188H342.061L338.979 179.469ZM338.176 179.469H339.658L339.928 185.574V188H338.176V179.469ZM345.658 179.469H347.146V188H345.389V185.574L345.658 179.469Z" fill="white"/>
<circle cx="195.919" cy="37.0553" r="31.2643" transform="rotate(-169.142 195.919 37.0553)" fill="url(#paint13_linear_3_71)"/>
<path d="M158.035 41.079C158.035 40.7851 157.989 40.5215 157.899 40.2879C157.816 40.0469 157.658 39.8284 157.424 39.6325C157.191 39.4291 156.863 39.2295 156.441 39.0336C156.019 38.8377 155.473 38.6343 154.803 38.4234C154.057 38.1823 153.349 37.9111 152.678 37.6098C152.015 37.3084 151.428 36.9581 150.915 36.5589C150.411 36.1521 150.011 35.6812 149.718 35.1463C149.431 34.6115 149.288 33.9899 149.288 33.2818C149.288 32.5963 149.439 31.9747 149.74 31.4173C150.042 30.8523 150.463 30.3701 151.006 29.9708C151.548 29.564 152.189 29.2514 152.927 29.0329C153.673 28.8144 154.49 28.7052 155.379 28.7052C156.592 28.7052 157.65 28.9237 158.554 29.3606C159.458 29.7976 160.159 30.3965 160.656 31.1574C161.161 31.9182 161.413 32.7884 161.413 33.7677H158.046C158.046 33.2856 157.944 32.8637 157.741 32.5021C157.545 32.1329 157.244 31.8429 156.837 31.632C156.437 31.421 155.933 31.3156 155.323 31.3156C154.735 31.3156 154.245 31.406 153.854 31.5868C153.462 31.76 153.168 31.9973 152.972 32.2987C152.776 32.5925 152.678 32.924 152.678 33.2931C152.678 33.5718 152.746 33.8242 152.882 34.0502C153.025 34.2762 153.236 34.4872 153.515 34.683C153.793 34.8789 154.136 35.0635 154.543 35.2367C154.95 35.41 155.42 35.5795 155.955 35.7452C156.852 36.0165 157.639 36.3216 158.317 36.6606C159.003 36.9996 159.575 37.38 160.035 37.8019C160.494 38.2238 160.841 38.7021 161.074 39.237C161.308 39.7719 161.425 40.3783 161.425 41.0564C161.425 41.772 161.285 42.4124 161.007 42.9774C160.728 43.5424 160.325 44.0208 159.797 44.4125C159.27 44.8043 158.641 45.1018 157.91 45.3052C157.18 45.5086 156.362 45.6103 155.458 45.6103C154.645 45.6103 153.842 45.5049 153.051 45.2939C152.26 45.0755 151.541 44.7478 150.893 44.3108C150.253 43.8739 149.74 43.3164 149.356 42.6384C148.972 41.9604 148.78 41.1581 148.78 40.2314H152.181C152.181 40.7437 152.26 41.1769 152.418 41.531C152.577 41.885 152.799 42.1713 153.085 42.3898C153.379 42.6083 153.725 42.7665 154.125 42.8644C154.532 42.9623 154.976 43.0113 155.458 43.0113C156.046 43.0113 156.528 42.9284 156.905 42.7627C157.289 42.597 157.571 42.3672 157.752 42.0734C157.94 41.7796 158.035 41.4481 158.035 41.079ZM177.335 28.9312V45.3843H173.956V28.9312H177.335ZM182.397 28.9312V31.5868H168.973V28.9312H182.397ZM196.048 31.745L191.573 45.3843H187.968L194.081 28.9312H196.375L196.048 31.745ZM199.765 45.3843L195.279 31.745L194.918 28.9312H197.234L203.381 45.3843H199.765ZM199.562 39.2596V41.9152H190.872V39.2596H199.562ZM220.49 39.9263H223.868C223.801 41.0338 223.495 42.0169 222.953 42.8757C222.418 43.7345 221.669 44.405 220.704 44.8871C219.748 45.3693 218.595 45.6103 217.246 45.6103C216.192 45.6103 215.246 45.4295 214.41 45.0679C213.574 44.6988 212.858 44.1714 212.263 43.4859C211.675 42.8004 211.227 41.9717 210.918 40.9999C210.609 40.028 210.455 38.9394 210.455 37.7341V36.5928C210.455 35.3874 210.613 34.2988 210.93 33.327C211.254 32.3476 211.713 31.5152 212.308 30.8297C212.911 30.1441 213.63 29.6168 214.467 29.2476C215.303 28.8785 216.237 28.6939 217.269 28.6939C218.64 28.6939 219.796 28.9425 220.738 29.4397C221.687 29.9369 222.422 30.6225 222.942 31.4964C223.469 32.3702 223.785 33.3647 223.891 34.4796H220.501C220.463 33.8167 220.331 33.2554 220.105 32.7959C219.879 32.3288 219.537 31.9785 219.077 31.745C218.625 31.5039 218.022 31.3834 217.269 31.3834C216.704 31.3834 216.211 31.4888 215.789 31.6998C215.367 31.9107 215.013 32.2309 214.726 32.6603C214.44 33.0897 214.225 33.6321 214.082 34.2875C213.947 34.9354 213.879 35.6963 213.879 36.5702V37.7341C213.879 38.5854 213.943 39.335 214.071 39.9828C214.199 40.6232 214.395 41.1656 214.659 41.6101C214.93 42.047 215.276 42.3785 215.698 42.6045C216.128 42.823 216.644 42.9322 217.246 42.9322C217.955 42.9322 218.538 42.8192 218.998 42.5932C219.457 42.3672 219.808 42.0319 220.049 41.5875C220.297 41.143 220.444 40.5893 220.49 39.9263ZM235.733 28.9312V45.3843H232.343V28.9312H235.733ZM245.587 28.9312L239.067 37.0561L235.304 41.1016L234.694 37.8923L237.236 34.4118L241.428 28.9312H245.587ZM241.734 45.3843L236.886 37.7793L239.394 35.6774L245.745 45.3843H241.734Z" fill="url(#paint14_linear_3_71)"/>
<defs>
<linearGradient id="paint0_linear_3_71" x1="110" y1="265" x2="110" y2="365.098" gradientUnits="userSpaceOnUse">
<stop stop-color="#FF5B8D"/>
<stop offset="1" stop-color="#FEE140" stop-opacity="0"/>
</linearGradient>
<linearGradient id="paint1_linear_3_71" x1="110" y1="287" x2="110" y2="307.003" gradientUnits="userSpaceOnUse">
<stop stop-color="#FF5B8D"/>
<stop offset="1" stop-color="#FEE140"/>
</linearGradient>
<linearGradient id="paint2_linear_3_71" x1="196" y1="265" x2="196" y2="365.098" gradientUnits="userSpaceOnUse">
<stop stop-color="#FF5B8D"/>
<stop offset="1" stop-color="#FEE140" stop-opacity="0"/>
</linearGradient>
<linearGradient id="paint3_linear_3_71" x1="195.5" y1="287" x2="195.5" y2="307.125" gradientUnits="userSpaceOnUse">
<stop stop-color="#FF5B8D"/>
<stop offset="1" stop-color="#FEE140"/>
</linearGradient>
<linearGradient id="paint4_linear_3_71" x1="282" y1="265" x2="282" y2="365.098" gradientUnits="userSpaceOnUse">
<stop stop-color="#FF5B8D"/>
<stop offset="1" stop-color="#FEE140" stop-opacity="0"/>
</linearGradient>
<linearGradient id="paint5_linear_3_71" x1="284" y1="287" x2="284" y2="307" gradientUnits="userSpaceOnUse">
<stop stop-color="#FF5B8D"/>
<stop offset="1" stop-color="#FEE140"/>
</linearGradient>
<linearGradient id="paint6_linear_3_71" x1="197.405" y1="112" x2="197.405" y2="143" gradientUnits="userSpaceOnUse">
<stop stop-color="#FF5B8D"/>
<stop offset="1" stop-color="#FEE140"/>
</linearGradient>
<linearGradient id="paint7_linear_3_71" x1="197.398" y1="124.26" x2="197.398" y2="130.747" gradientUnits="userSpaceOnUse">
<stop stop-color="#FF5B8D"/>
<stop offset="1" stop-color="#FEE140"/>
</linearGradient>
<linearGradient id="paint8_linear_3_71" x1="197.5" y1="79" x2="197.5" y2="241" gradientUnits="userSpaceOnUse">
<stop stop-color="#FF5B8D"/>
<stop offset="1" stop-color="#FEE140" stop-opacity="0"/>
</linearGradient>
<linearGradient id="paint9_linear_3_71" x1="61.5" y1="103" x2="61.5" y2="265" gradientUnits="userSpaceOnUse">
<stop stop-color="#FF5B8D"/>
<stop offset="1" stop-color="#FEE140" stop-opacity="0"/>
</linearGradient>
<linearGradient id="paint10_linear_3_71" x1="62" y1="136" x2="62" y2="167" gradientUnits="userSpaceOnUse">
<stop stop-color="#FF5B8D"/>
<stop offset="1" stop-color="#FEE140"/>
</linearGradient>
<linearGradient id="paint11_linear_3_71" x1="335.5" y1="140" x2="335.5" y2="172" gradientUnits="userSpaceOnUse">
<stop stop-color="#FF5B8D"/>
<stop offset="1" stop-color="#FEE140"/>
</linearGradient>
<linearGradient id="paint12_linear_3_71" x1="333.5" y1="107" x2="333.5" y2="269" gradientUnits="userSpaceOnUse">
<stop stop-color="#FF5B8D"/>
<stop offset="1" stop-color="#FEE140" stop-opacity="0"/>
</linearGradient>
<linearGradient id="paint13_linear_3_71" x1="195.919" y1="5.79094" x2="195.919" y2="68.3196" gradientUnits="userSpaceOnUse">
<stop stop-color="#FF5B8D"/>
<stop offset="1" stop-color="#FEE140"/>
</linearGradient>
<linearGradient id="paint14_linear_3_71" x1="197" y1="24.3843" x2="197" y2="45.3843" gradientUnits="userSpaceOnUse">
<stop stop-color="#FF5B8D"/>
<stop offset="1" stop-color="#FEE140"/>
</linearGradient>
</defs>
</svg>
